<svg class="nav-icon" version="1.0" xmlns="http://www.w3.org/2000/svg" width="30pt" height="30pt" viewBox="0 0 512.000000 512.000000" preserveAspectRatio="xMidYMid meet">
    <g transform="translate(0.000000,512.000000) scale(0.100000,-0.100000)" fill="#000000" stroke="none">
        <path d="M2739 5097 c-112 -38 -196 -124 -234 -237 l-16 -47 -117 -6 c-133 -6 -205 -26 -290 -83 -102 -67 -171 -156 -215 -272 -19 -52 -21 -81 -25 -361 l-4 -303 -28 -40 c-40 -55 -53 -123 -48 -263 3 -111 6 -124 33 -174 49 -90 143 -145 268 -158 l57 -6 0 -58 c0 -196 91 -408 239 -554 l71 -69 0 -152 0 -151 -332 -123 c-347 -128 -393 -148 -443 -186 -16 -12 -133 -157 -260 -322 l-230 -299 -5 156 c-6 163 -13 194 -59 235 -20 18 -21 29 -21 194 0 192 -7 232 -52 287 -45 54 -101 79 -179 80 -56 0 -73 -4 -115 -30 -30 -19 -60 -49 -79 -79 -30 -49 -30 -51 -33 -213 l-4 -163 -26 0 c-85 0 -170 -61 -191 -135 -7 -26 -11 -169 -11 -405 0 -333 2 -369 19 -406 18 -40 94 -114 117 -114 8 0 13 -47 16 -172 6 -217 20 -262 112 -354 82 -82 147 -108 271 -109 82 0 96 3 158 33 77 38 99 61 367 386 l180 218 0 -296 0 -297 25 -24 24 -25 1499 0 1499 0 27 21 26 20 0 418 0 418 -23 21 c-31 29 -72 28 -102 -3 l-25 -24 0 -361 0 -360 -235 0 -235 0 0 510 0 511 -25 24 c-52 53 -125 13 -125 -70 l0 -45 -1087 2 -1088 3 -5 56 c-6 62 -19 84 -55 93 -29 7 -80 -15 -89 -39 -3 -9 -6 -85 -6 -168 l-1 -152 -264 -318 c-145 -175 -275 -327 -289 -338 -48 -38 -109 -59 -174 -59 -78 0 -120 17 -160 65 -41 50 -52 107 -52 265 l0 130 120 0 120 0 0 -49 c0 -64 28 -101 76 -101 58 0 74 26 74 121 0 73 3 83 29 117 40 52 51 92 51 189 l0 85 266 346 c147 191 281 362 298 380 48 52 16 39 698 292 l77 29 211 -160 c156 -118 218 -159 239 -159 21 0 83 41 240 160 l212 160 482 -151 c265 -83 501 -162 524 -175 61 -35 112 -90 142 -154 24 -51 26 -68 31 -233 5 -173 6 -179 29 -198 32 -26 73 -24 99 4 21 22 22 33 22 188 0 234 -31 329 -141 440 -81 81 -155 113 -544 235 -187 58 -394 123 -460 144 l-120 38 -3 146 -3 146 66 61 c147 138 230 320 250 550 l7 77 63 7 c117 12 232 88 270 178 21 50 30 215 16 297 -6 39 -22 83 -41 113 -29 46 -30 53 -30 163 0 64 -4 123 -10 133 -5 10 -22 24 -39 30 -24 10 -34 10 -59 -3 -37 -19 -42 -32 -42 -117 l0 -69 -550 0 c-601 0 -583 -2 -653 59 -67 59 -68 69 -65 503 l3 386 30 43 c19 27 50 54 85 72 l55 28 330 -3 c319 -3 332 -4 399 -28 99 -34 200 -110 261 -196 69 -96 96 -181 102 -314 5 -138 8 -147 44 -166 26 -13 36 -13 60 -3 42 17 49 36 49 139 0 290 -149 536 -395 651 -132 62 -190 69 -547 69 -299 -1 -316 -2 -379 -23z m-259 -744 c0 -344 -3 -360 -71 -417 -59 -51 -85 -56 -259 -56 l-162 0 4 248 3 247 29 62 c46 99 152 188 253 212 21 5 75 9 121 10 l82 1 0 -307z m127 -524 c25 -22 70 -53 101 -67 l57 -27 430 -5 430 -5 0 -365 c0 -316 -3 -374 -18 -430 -46 -171 -152 -302 -307 -377 -128 -63 -192 -77 -350 -77 -111 0 -149 4 -215 22 -182 53 -325 163 -395 306 -64 130 -70 172 -70 572 l0 351 49 7 c63 8 157 56 201 101 18 19 36 35 38 35 3 0 25 -18 49 -41z m-487 -315 l0 -216 -60 4 c-69 5 -106 27 -133 79 -27 51 -21 245 9 286 28 39 80 63 137 63 l47 0 0 -216z m1805 192 c47 -31 60 -71 60 -191 0 -159 -29 -202 -146 -212 l-59 -6 0 218 0 218 60 -6 c34 -3 72 -12 85 -21z m-1297 -1346 c152 -73 467 -73 639 1 l43 18 0 -114 0 -114 -175 -133 c-96 -73 -180 -133 -185 -133 -6 0 -92 61 -190 135 l-180 135 0 112 c0 62 1 113 3 113 2 0 22 -9 45 -20z m-1715 -351 c14 -18 17 -43 17 -165 l0 -144 -80 0 -80 0 0 135 c0 141 8 176 44 194 29 15 78 5 99 -20z m76 -485 c15 -20 21 -41 21 -80 l0 -54 -132 0 c-121 0 -134 -2 -155 -22 -31 -29 -30 -72 2 -103 23 -24 29 -25 155 -25 l130 0 0 -80 0 -80 -132 0 c-121 0 -134 -2 -155 -22 -31 -29 -30 -72 2 -103 23 -24 29 -25 155 -25 l130 0 0 -55 c0 -46 -4 -60 -25 -80 -24 -25 -26 -25 -210 -25 -184 0 -186 0 -210 25 l-25 24 0 342 c0 338 0 343 22 366 21 22 26 23 214 23 l193 0 20 -26z m2971 -829 l0 -235 -654 0 c-646 0 -654 0 -680 -21 -36 -28 -36 -80 0 -108 26 -21 34 -21 680 -21 l654 0 0 -80 0 -80 -1090 0 -1090 0 0 80 0 80 295 0 296 0 24 25 c14 13 25 36 25 50 0 14 -11 37 -25 50 l-24 25 -296 0 -295 0 0 235 0 235 1090 0 1090 0 0 -235z"/>
        <path d="M2571 3574 c-30 -38 -30 -150 0 -188 26 -33 79 -36 109 -6 30 30 29 166 0 198 -30 32 -82 30 -109 -4z"/>
        <path d="M3220 3580 c-17 -17 -20 -33 -20 -100 0 -94 16 -120 74 -120 53 0 76 36 76 120 0 53 -4 73 -21 94 -26 33 -79 36 -109 6z"/>
        <path d="M2716 3079 c-51 -40 -28 -165 44 -237 56 -57 105 -77 190 -77 83 0 121 15 178 69 94 87 109 239 27 260 -46 12 -78 -15 -95 -80 -12 -47 -22 -63 -50 -82 -71 -48 -159 -4 -175 87 -7 43 -42 81 -75 81 -10 0 -29 -9 -44 -21z"/>
        <path d="M512 3859 c-51 -26 -95 -76 -111 -128 -14 -49 -16 -1039 -1 -1091 14 -50 62 -104 117 -132 47 -22 56 -23 374 -26 204 -2 349 1 385 7 122 22 194 113 194 242 l0 69 140 0 c127 0 142 2 160 20 43 43 25 71 -154 250 l-146 145 0 246 0 247 -28 53 c-17 34 -44 65 -71 84 l-43 30 -386 3 c-378 2 -388 2 -430 -19z m785 -151 c23 -21 23 -22 23 -286 l0 -265 102 -103 102 -104 -61 0 c-68 0 -110 -12 -129 -38 -9 -11 -14 -52 -14 -122 -1 -113 -7 -132 -54 -150 -38 -14 -633 -14 -675 1 -17 6 -36 19 -41 29 -6 12 -10 212 -10 519 0 488 1 502 20 521 19 19 33 20 367 20 342 0 347 0 370 -22z"/>
        <path d="M989 3273 l-139 -137 -64 62 c-72 70 -101 77 -141 37 -44 -43 -35 -68 66 -171 94 -95 129 -117 164 -104 35 14 365 354 365 377 0 37 -38 73 -77 73 -33 0 -49 -12 -174 -137z"/>
    </g>
</svg>
