<?xml version="1.0" standalone="no"?>
<!DOCTYPE svg PUBLIC "-//W3C//DTD SVG 20010904//EN"
 "http://www.w3.org/TR/2001/REC-SVG-20010904/DTD/svg10.dtd">
<svg class="nav-icon" version="1.0" xmlns="http://www.w3.org/2000/svg"
 width="30px" height="30px" viewBox="0 0 512.000000 512.000000"
 preserveAspectRatio="xMidYMid meet">

<g transform="translate(0.000000,512.000000) scale(0.100000,-0.100000)"
fill="black" stroke="none">
<path d="M1349 5104 c-85 -26 -163 -117 -183 -215 -5 -23 -13 -28 -50 -33 -78
-12 -154 -84 -170 -162 -6 -27 -14 -34 -50 -44 -120 -33 -189 -172 -142 -284
l14 -34 -46 -6 c-96 -13 -191 -91 -224 -184 -10 -29 -13 -167 -13 -623 l0
-585 30 -59 c19 -38 45 -70 72 -90 l42 -30 0 -312 1 -313 -257 0 c-284 0 -304
-4 -347 -63 -18 -24 -21 -46 -24 -145 -2 -97 0 -123 15 -151 32 -61 62 -75
176 -81 102 -6 102 -6 171 -54 142 -97 346 -181 551 -227 95 -21 126 -23 655
-26 412 -3 557 -7 562 -16 4 -7 8 -27 8 -45 0 -75 56 -158 136 -203 l54 -31 0
-168 0 -168 -54 -31 c-79 -44 -136 -128 -136 -200 0 -65 23 -61 -364 -61 -208
0 -366 -4 -388 -10 -57 -16 -130 -71 -161 -121 -52 -86 -61 -266 -14 -309 20
-20 39 -20 1347 -20 1301 0 1327 0 1347 19 27 26 36 83 28 168 -16 159 -109
257 -256 270 -52 5 -60 3 -83 -20 -15 -15 -26 -37 -26 -52 0 -36 42 -75 81
-75 74 0 129 -53 129 -125 l0 -35 -1220 0 -1220 0 0 35 c0 50 23 89 64 109 31
14 125 16 975 16 l942 0 24 25 c34 33 33 77 -1 104 -25 19 -40 21 -189 21
-179 0 -175 -1 -175 63 -1 73 -64 164 -141 203 l-49 24 0 170 0 170 49 24 c78
40 140 130 141 206 0 19 4 40 8 47 5 9 150 13 562 16 529 3 560 5 655 26 204
45 397 125 556 229 77 50 77 50 172 53 108 4 138 19 170 80 15 28 17 54 15
151 -3 99 -6 121 -24 145 -43 59 -63 63 -346 63 l-258 0 1 313 0 312 42 30
c27 20 53 52 72 90 l30 59 0 209 0 209 -28 24 c-35 30 -59 30 -94 0 l-28 -24
-3 -203 c-4 -221 -8 -236 -63 -260 -42 -17 -96 -2 -123 34 -20 28 -21 42 -26
450 -6 468 -4 457 -75 530 -50 52 -99 71 -180 72 -80 0 -128 -19 -181 -72 -73
-72 -68 -35 -74 -673 -4 -441 -8 -580 -18 -597 -15 -27 -62 -53 -94 -53 -41 0
-86 36 -97 77 -7 24 -11 202 -11 484 l0 445 -26 52 c-79 158 -289 189 -410 60
-57 -60 -67 -92 -74 -230 -5 -120 -7 -129 -31 -154 -16 -16 -42 -28 -67 -31
-37 -5 -45 -2 -77 30 l-35 35 0 191 c0 104 -5 213 -11 241 -14 64 -60 125
-124 165 -43 27 -57 30 -125 30 -68 0 -82 -3 -125 -30 -64 -40 -110 -101 -124
-165 -16 -76 -14 -255 4 -289 23 -46 66 -54 109 -20 25 20 26 23 26 140 0 137
12 179 59 203 38 20 64 20 102 0 52 -26 59 -60 59 -287 0 -198 1 -204 26 -255
78 -157 290 -189 410 -60 58 61 68 92 74 230 5 116 7 129 29 152 30 31 81 43
121 26 60 -25 59 -14 62 -526 l3 -469 27 -51 c87 -166 303 -192 422 -52 66 76
66 79 66 691 l0 549 34 34 c45 45 92 47 138 5 l33 -29 5 -429 c5 -416 6 -429
27 -469 36 -66 92 -111 176 -138 16 -5 17 -28 17 -306 l0 -300 -1239 0 c-1195
0 -1240 -1 -1262 -19 -32 -26 -32 -86 0 -112 22 -18 74 -19 1577 -19 l1554 0
0 -70 0 -70 -2410 0 -2410 0 0 70 0 70 704 0 c696 0 704 0 730 21 36 28 36 80
0 108 -26 20 -37 21 -410 21 l-384 0 0 305 c0 269 2 305 15 305 55 0 147 83
175 157 19 50 20 79 20 459 l0 406 34 34 c26 26 42 34 71 34 29 0 45 -8 71
-34 l34 -34 0 -199 c0 -229 9 -275 66 -341 119 -140 337 -113 421 52 22 44 27
67 31 171 3 79 10 127 19 141 33 51 120 55 164 8 l24 -26 5 -326 c6 -361 5
-357 74 -430 119 -128 332 -97 410 59 24 50 26 62 26 194 0 135 -1 143 -23
163 -29 27 -67 28 -98 3 -23 -18 -24 -27 -29 -156 l-5 -137 -34 -30 c-29 -26
-39 -30 -74 -25 -25 3 -50 16 -66 31 l-26 26 -5 328 c-5 311 -6 329 -27 367
-62 115 -192 170 -309 131 -67 -22 -117 -65 -148 -128 -23 -45 -26 -65 -26
-147 0 -124 -12 -166 -53 -191 -39 -24 -68 -25 -107 -5 -54 28 -60 54 -60 273
0 227 -8 267 -69 330 -56 57 -104 77 -186 77 -104 -1 -186 -51 -231 -142 -17
-35 -19 -72 -24 -460 -5 -409 -6 -422 -26 -450 -39 -52 -114 -55 -160 -6 l-24
26 0 574 c0 634 -2 616 64 647 31 15 190 16 1856 16 1666 0 1825 -1 1856 -16
59 -28 64 -49 65 -276 0 -130 4 -216 12 -238 14 -41 52 -59 95 -44 47 16 54
61 50 299 -5 225 -10 252 -64 322 -30 40 -114 89 -165 98 l-37 6 6 65 c7 86
-14 135 -92 223 -107 119 -166 264 -166 407 0 34 -6 51 -25 69 -23 24 -29 25
-158 25 -164 0 -220 -14 -284 -73 -49 -45 -78 -94 -88 -150 -6 -31 -11 -37
-34 -37 -34 -1 -101 -32 -125 -59 -11 -11 -23 -21 -27 -21 -15 0 -49 132 -56
217 -9 120 -14 123 -193 123 -172 0 -214 -13 -287 -86 -42 -42 -56 -64 -69
-113 -12 -42 -22 -61 -33 -61 -37 0 -94 -23 -125 -51 -19 -16 -36 -29 -39 -29
-14 0 -48 138 -54 217 -9 119 -15 123 -188 123 -173 0 -220 -14 -291 -85 -43
-43 -57 -65 -70 -113 -17 -60 -17 -60 -60 -67 -28 -4 -61 -19 -90 -41 -25 -20
-47 -34 -49 -32 -13 14 -39 120 -47 198 -16 140 -16 140 -192 139 -91 0 -157
-5 -187 -15z m231 -165 c0 -47 28 -146 63 -223 30 -66 30 -68 11 -79 -10 -6
-37 -28 -58 -49 l-40 -39 -113 113 c-129 128 -146 161 -122 225 24 63 66 83
170 83 l89 0 0 -31z m803 -26 c7 -62 30 -138 68 -217 19 -41 20 -51 8 -54 -7
-3 -34 -25 -58 -49 l-45 -44 -113 113 c-129 128 -146 161 -122 225 24 62 66
83 169 83 l87 0 6 -57z m799 -3 c8 -64 29 -131 66 -209 20 -44 23 -56 11 -59
-8 -3 -34 -25 -58 -49 l-45 -44 -109 108 c-142 141 -158 173 -122 244 28 53
68 70 165 67 l85 -3 7 -55z m792 38 c36 -196 81 -295 185 -412 57 -63 71 -85
71 -111 0 -33 -32 -85 -53 -85 -7 0 -113 101 -236 224 -214 214 -223 225 -227
267 -6 53 10 86 55 116 29 19 47 23 117 23 79 0 84 -1 88 -22z m-2604 -425
l185 -188 -90 -3 -90 -3 -142 144 c-153 153 -165 175 -123 217 44 44 62 33
260 -167z m798 0 l183 -188 -88 -3 -88 -3 -142 144 c-153 153 -165 175 -123
217 45 45 62 34 258 -167z m798 0 l182 -188 -87 -3 -86 -3 -142 144 c-123 123
-143 148 -143 175 0 21 7 36 22 46 49 35 62 26 254 -171z m804 -3 l195 -189
-95 -1 -95 0 -142 142 c-119 119 -143 148 -143 172 0 16 7 38 17 48 37 41 58
27 263 -172z m-2696 -100 l91 -90 -73 0 c-81 0 -132 17 -174 57 -33 32 -37 74
-8 103 39 39 66 27 164 -70z m800 0 l91 -90 -95 0 -94 0 -43 42 c-51 50 -59
96 -21 122 44 31 66 21 162 -74z m800 0 l91 -90 -99 0 -98 0 -39 43 c-46 50
-52 97 -17 121 44 31 66 21 162 -74z m800 0 l91 -90 -101 0 c-100 0 -100 0
-131 33 -44 46 -55 71 -44 101 6 13 18 29 28 35 42 24 64 13 157 -79z m1026
-2754 c-69 -36 -210 -83 -323 -108 l-102 -23 -1515 0 -1515 0 -102 23 c-113
25 -254 72 -323 108 l-45 23 1985 0 1985 0 -45 -23z m-1670 -316 c0 -45 -25
-85 -64 -104 -27 -13 -68 -16 -206 -16 -138 0 -179 3 -206 16 -39 19 -64 59
-64 104 l0 30 270 0 270 0 0 -30z m-200 -430 l0 -160 -70 0 -70 0 0 160 0 160
70 0 70 0 0 -160z m136 -326 c39 -19 64 -59 64 -104 l0 -30 -270 0 -270 0 0
30 c0 45 24 85 62 103 48 24 364 24 414 1z"/>
<path d="M3027 3033 c-19 -5 -47 -52 -47 -78 0 -9 11 -27 25 -40 31 -32 74
-33 103 -2 55 58 -1 141 -81 120z"/>
<path d="M2877 2783 c-19 -5 -47 -52 -47 -78 0 -9 11 -27 25 -40 31 -32 74
-33 103 -2 55 58 -1 141 -81 120z"/>
<path d="M3177 2783 c-19 -5 -47 -52 -47 -78 0 -9 11 -27 25 -40 31 -32 74
-33 103 -2 55 58 -1 141 -81 120z"/>
<path d="M1156 2719 c-52 -41 -23 -129 44 -129 67 0 96 88 44 129 -15 12 -34
21 -44 21 -10 0 -29 -9 -44 -21z"/>
<path d="M1006 2469 c-52 -41 -23 -129 44 -129 67 0 96 88 44 129 -15 12 -34
21 -44 21 -10 0 -29 -9 -44 -21z"/>
<path d="M1306 2469 c-52 -41 -23 -129 44 -129 67 0 96 88 44 129 -15 12 -34
21 -44 21 -10 0 -29 -9 -44 -21z"/>
</g>
</svg>
