<svg version="1.0" xmlns="http://www.w3.org/2000/svg" width="512.000000pt" height="512.000000pt" viewBox="0 0 512.000000 512.000000" preserveAspectRatio="xMidYMid meet">
    <g transform="translate(0.000000,512.000000) scale(0.100000,-0.100000)" fill="#000000" stroke="none">
        <path d="M1895 5051 c-105 -30 -187 -87 -251 -173 -63 -86 -86 -154 -93 -278 l-6 -105 -710 -5 c-514 -4 -716 -8 -730 -17 -33 -19 -73 -66 -89 -105 -12 -28 -16 -72 -16 -170 0 -152 14 -198 71 -240 58 -43 90 -48 305 -48 l204 0 0 -1718 c0 -1872 -3 -1767 56 -1884 36 -71 123 -159 193 -197 122 -65 14 -61 1781 -61 1756 0 1660 -3 1774 58 70 37 165 135 199 205 59 122 57 40 57 1894 l0 1702 168 3 c193 3 225 14 277 87 29 42 30 46 33 179 4 156 -4 195 -51 249 -57 65 -30 63 -747 63 l-650 0 0 78 c0 147 -51 272 -149 366 -65 61 -151 108 -229 125 -36 7 -255 11 -695 10 -579 0 -648 -2 -702 -18z m1421 -203 c106 -56 159 -149 159 -278 l0 -75 -867 -3 -868 -2 0 75 c0 122 39 196 143 275 49 37 95 39 747 37 l635 -2 51 -27z m1614 -643 l0 -95 -2370 0 -2370 0 0 95 0 95 2370 0 2370 0 0 -95z m-490 -2018 l0 -1724 -31 -62 c-21 -41 -46 -73 -77 -96 -90 -70 22 -66 -1742 -63 l-1595 3 -57 28 c-64 32 -111 80 -142 146 l-21 46 -3 1723 -2 1722 1835 0 1835 0 0 -1723z"/>
        <path d="M1462 3314 c-45 -23 -89 -76 -102 -123 -7 -27 -9 -389 -8 -1133 3 -1087 3 -1093 24 -1133 11 -22 40 -53 63 -70 42 -29 46 -30 179 -34 82 -2 150 1 173 8 49 15 95 54 119 102 20 37 20 66 20 1145 l0 1108 -21 44 c-13 26 -38 54 -62 70 -39 26 -46 27 -196 30 -129 2 -162 -1 -189 -14z m276 -1236 l-3 -1063 -92 -3 -93 -3 0 1066 0 1065 95 0 95 0 -2 -1062z"/>
        <path d="M2422 3309 c-25 -13 -55 -39 -70 -62 l-27 -41 -3 -1105 c-2 -778 0 -1117 8 -1144 15 -52 63 -103 114 -122 36 -14 71 -16 184 -13 137 3 141 4 183 33 23 17 52 48 63 70 21 40 21 44 21 1155 0 1097 0 1116 -20 1149 -11 19 -37 48 -58 65 l-39 31 -156 3 c-145 2 -160 1 -200 -19z m278 -1234 l0 -1066 -92 3 -93 3 -3 1063 -2 1062 95 0 95 0 0 -1065z"/>
        <path d="M3388 3310 c-50 -27 -85 -76 -98 -136 -7 -33 -10 -398 -8 -1129 l3 -1080 24 -42 c48 -83 99 -103 270 -103 101 0 134 4 166 19 47 22 89 64 104 104 8 19 11 378 11 1138 0 1069 -1 1111 -19 1147 -44 87 -85 102 -268 102 -127 -1 -153 -4 -185 -20z m282 -1235 l0 -1065 -95 0 -95 0 0 1065 0 1065 95 0 95 0 0 -1065z"/>
    </g>
</svg>
