<?xml version="1.0" standalone="no"?>
<!DOCTYPE svg PUBLIC "-//W3C//DTD SVG 20010904//EN"
 "http://www.w3.org/TR/2001/REC-SVG-20010904/DTD/svg10.dtd">
<svg version="1.0" xmlns="http://www.w3.org/2000/svg"
 width="30px" height="30px" viewBox="0 0 512.000000 512.000000"
 preserveAspectRatio="xMidYMid meet">

<g transform="translate(0.000000,512.000000) scale(0.100000,-0.100000)"
fill="black" stroke="none">
<path d="M2448 4910 c-257 -47 -465 -200 -577 -424 -59 -116 -82 -217 -83
-351 0 -142 19 -222 84 -355 45 -91 64 -117 142 -195 50 -49 117 -105 148
-124 120 -70 257 -110 376 -111 74 0 102 20 102 73 0 52 -26 68 -122 78 -46 5
-96 13 -113 18 -228 69 -396 240 -451 461 -22 85 -21 227 1 310 54 208 215
380 419 447 69 23 98 27 201 27 200 0 346 -54 464 -173 112 -112 162 -233 163
-396 1 -179 -61 -289 -197 -351 -27 -12 -62 -26 -77 -29 l-28 -7 0 350 c0 338
-1 350 -21 376 -41 52 -129 20 -129 -47 0 -33 0 -33 -53 -5 -27 14 -68 23
-115 26 -66 4 -78 2 -137 -27 -223 -110 -272 -433 -93 -627 59 -64 133 -97
216 -97 62 0 93 9 175 51 4 2 7 -21 7 -51 0 -84 20 -102 107 -100 82 1 203 38
272 82 150 96 225 249 223 456 -2 406 -311 705 -742 720 -63 2 -136 0 -162 -5z
m216 -583 c54 -42 81 -108 80 -197 0 -114 -52 -195 -139 -219 -104 -29 -215
87 -215 224 0 83 51 178 112 209 47 24 118 16 162 -17z"/>
<path d="M2926 3557 c-50 -50 -26 -107 58 -133 46 -14 57 -15 81 -3 16 8 33
27 38 42 18 56 -24 99 -111 113 -35 5 -44 3 -66 -19z"/>
<path d="M1859 3473 c-63 -33 -80 -63 -58 -109 22 -45 59 -52 120 -23 73 34
95 93 51 132 -32 28 -57 28 -113 0z"/>
<path d="M250 3466 c-30 -6 -68 -19 -85 -28 -50 -27 -106 -89 -134 -147 l-26
-56 0 -875 0 -875 26 -56 c33 -71 87 -125 158 -158 l56 -26 470 0 470 0 67 33
c79 39 129 93 158 169 19 52 20 77 20 913 0 824 -1 862 -19 910 -30 78 -81
134 -159 172 l-67 33 -440 2 c-322 1 -455 -1 -495 -11z m903 -147 c42 -10 69
-28 96 -62 13 -16 -16 -17 -535 -17 l-549 0 31 31 c57 57 71 58 512 59 255 0
419 -4 445 -11z m127 -879 l0 -650 -565 0 -565 0 0 650 0 650 565 0 565 0 0
-650z m0 -860 c0 -76 -26 -129 -77 -161 l-38 -24 -415 -3 c-228 -2 -434 0
-458 3 -50 7 -108 53 -128 102 -8 18 -14 57 -14 88 l0 55 565 0 565 0 0 -60z"/>
<path d="M660 1570 c-27 -27 -26 -81 0 -105 49 -45 133 -9 133 56 0 62 -88 94
-133 49z"/>
<path d="M3284 3442 c-48 -7 -75 -80 -44 -117 19 -22 163 -105 183 -105 30 0
57 19 68 47 17 44 -5 76 -84 125 -82 50 -94 55 -123 50z"/>
<path d="M1624 3330 c-40 -16 -94 -76 -94 -104 0 -34 41 -76 73 -76 31 0 105
54 117 85 22 57 -39 118 -96 95z"/>
<path d="M3592 3157 c-35 -37 -28 -73 22 -123 51 -51 84 -57 121 -19 36 35 32
68 -16 120 -49 53 -91 60 -127 22z"/>
<path d="M3574 2906 c-17 -8 -34 -21 -38 -31 -3 -9 -6 -243 -6 -520 0 -480 1
-504 19 -526 19 -23 24 -24 155 -24 126 0 137 2 157 22 27 27 29 75 4 103 -15
17 -31 20 -102 20 l-83 0 0 366 c0 282 3 363 12 358 7 -4 144 -110 305 -235
160 -125 300 -229 310 -231 10 -3 28 -1 40 3 11 4 154 112 317 238 163 127
298 231 301 231 3 0 5 -164 5 -365 l0 -365 -425 0 c-424 0 -424 0 -445 -22
-37 -40 -22 -98 31 -117 43 -15 896 -15 935 -1 55 21 53 6 54 542 0 351 -3
504 -11 522 -7 14 -25 30 -42 36 -20 6 -271 10 -746 10 -578 -1 -722 -3 -747
-14z m1246 -141 c0 -9 -491 -386 -500 -383 -17 5 -489 373 -489 381 -1 4 222
7 494 7 272 0 495 -2 495 -5z"/>
<path d="M1785 2650 c-34 -37 -23 -72 54 -185 l72 -104 -72 -108 c-79 -117
-87 -149 -50 -186 18 -19 35 -23 114 -26 54 -2 95 -8 99 -15 4 -6 8 -27 8 -47
0 -98 68 -239 159 -330 108 -108 237 -162 386 -163 250 0 461 155 536 394 28
90 28 231 0 320 -40 125 -117 229 -221 299 -107 71 -135 77 -578 126 -470 52
-482 53 -507 25z m947 -247 c142 -66 229 -205 229 -363 0 -136 -4 -135 -106
14 l-90 131 -392 5 -392 5 45 69 c24 38 44 81 44 96 0 14 -16 50 -35 80 -19
30 -35 57 -35 60 0 3 150 -11 334 -31 310 -34 339 -39 398 -66z m42 -495 c68
-101 87 -135 79 -147 -18 -29 -117 -89 -172 -105 -87 -24 -114 -26 -183 -15
-172 27 -314 171 -337 344 l-8 55 266 0 266 -1 89 -131z"/>
<path d="M3958 1608 c-22 -17 -48 -79 -48 -116 0 -36 37 -72 74 -72 36 0 70
38 86 96 12 41 11 48 -7 72 -23 31 -77 41 -105 20z"/>
<path d="M2123 1449 c-67 -26 -137 -94 -171 -167 l-27 -57 -3 -465 c-2 -309 0
-477 7 -501 7 -22 20 -40 36 -47 37 -17 1153 -17 1190 0 16 7 29 25 36 47 7
24 9 192 7 501 l-3 465 -27 57 c-35 75 -104 141 -174 167 -52 20 -75 21 -437
20 -358 0 -385 -1 -434 -20z m251 -216 l28 -88 -36 -253 c-20 -140 -36 -272
-36 -293 0 -36 8 -48 85 -128 47 -49 99 -94 115 -101 45 -19 77 0 175 101 77
80 85 92 85 128 0 21 -16 153 -36 293 l-36 253 28 88 28 87 75 0 c61 0 82 -4
116 -25 80 -46 80 -42 83 -522 l3 -423 -491 0 -491 0 3 423 c3 478 3 475 82
522 34 21 54 25 117 25 l75 0 28 -87z m236 81 c0 -4 -5 -24 -12 -45 -9 -33
-16 -39 -38 -39 -22 0 -29 6 -38 39 -7 21 -12 41 -12 45 0 3 23 6 50 6 28 0
50 -3 50 -6z m-2 -461 l32 -228 -40 -40 -40 -40 -40 40 -40 40 32 228 c26 185
35 227 48 227 13 0 22 -42 48 -227z"/>
<path d="M3847 1349 c-25 -15 -88 -117 -94 -154 -11 -66 78 -103 124 -52 33
35 73 105 79 137 11 54 -59 98 -109 69z"/>
<path d="M1306 1169 c-34 -27 -35 -73 -1 -119 45 -61 85 -73 129 -39 42 33 36
78 -17 134 -48 50 -72 55 -111 24z"/>
<path d="M3588 1022 c-45 -46 -58 -65 -58 -89 0 -44 30 -76 69 -76 46 0 154
107 154 152 0 43 -28 71 -71 71 -30 0 -45 -9 -94 -58z"/>
<path d="M1479 1008 c-32 -11 -54 -49 -45 -80 8 -29 12 -35 64 -80 48 -43 87
-49 120 -18 37 34 29 79 -20 127 -51 50 -83 63 -119 51z"/>
<path d="M3358 831 c-25 -16 -48 -36 -51 -46 -21 -53 10 -105 64 -105 38 0
117 53 124 83 9 34 -11 76 -40 87 -38 15 -46 13 -97 -19z"/>
<path d="M1650 823 c-16 -20 -20 -36 -16 -57 8 -38 15 -46 70 -76 53 -28 91
-22 115 21 21 37 7 74 -41 109 -54 39 -99 40 -128 3z"/>
</g>
</svg>
