<svg class="nav-icon" version="1.0" xmlns="http://www.w3.org/2000/svg" width="30pt" height="30pt" viewBox="0 0 512.000000 512.000000" preserveAspectRatio="xMidYMid meet">
    <g transform="translate(0.000000,512.000000) scale(0.100000,-0.100000)" stroke="none">
        <path d="M3875 4950 c-145 -27 -271 -94 -381 -204 -136 -137 -201 -282 -211 -478 l-6 -108 -214 0 c-214 0 -214 0 -238 -25 -16 -15 -25 -36 -25 -55 0 -19 9 -40 25 -55 l24 -25 255 0 254 0 4 -257 c4 -247 5 -261 29 -324 37 -98 73 -154 142 -220 66 -65 167 -121 255 -141 l52 -13 0 -82 0 -83 -63 0 c-226 0 -424 -121 -517 -314 -21 -45 -43 -108 -49 -140 -6 -34 -11 -191 -11 -363 l0 -303 -80 0 -80 0 0 855 0 856 -25 24 -24 25 -1151 0 -1151 0 -24 -25 -25 -24 0 -991 0 -991 25 -24 24 -25 381 0 c314 0 380 -2 380 -14 0 -7 16 -45 35 -83 43 -86 103 -144 193 -186 66 -31 71 -32 235 -35 l167 -4 0 -134 c0 -130 1 -136 25 -159 l24 -25 271 0 271 0 24 25 c21 20 25 34 25 80 l0 55 240 0 240 0 0 -375 0 -376 25 -24 24 -25 831 0 831 0 25 25 25 25 -3 1112 -3 1113 -26 66 c-38 98 -71 149 -140 218 -69 68 -166 122 -254 142 l-55 12 0 102 c0 100 0 101 29 123 43 32 91 106 113 174 16 53 18 97 18 393 l0 333 25 6 c51 13 58 41 53 214 -5 131 -10 170 -30 234 -39 118 -92 203 -182 294 -138 137 -286 202 -476 209 -58 2 -127 0 -155 -5z m231 -161 c32 -6 96 -28 141 -50 193 -93 313 -290 313 -516 l0 -63 -560 0 -560 0 0 63 c0 226 117 419 313 516 118 58 225 73 353 50z m374 -1111 c0 -206 -4 -338 -11 -363 -10 -37 -40 -71 -126 -145 -22 -18 -23 -27 -23 -155 l0 -135 -160 0 -160 0 0 80 0 80 55 0 c46 0 60 4 80 25 30 29 32 74 6 106 -18 23 -27 24 -168 29 -139 6 -152 8 -215 37 -92 43 -151 100 -196 191 l-37 76 -3 248 -4 248 481 0 481 0 0 -322z m-2960 -693 l0 -376 25 -24 c39 -40 68 -32 187 46 l108 72 108 -72 c119 -78 148 -86 187 -46 l25 24 0 376 0 375 360 0 360 0 0 -800 0 -800 -80 0 -80 0 0 55 c0 46 -4 60 -25 80 l-24 25 -271 0 -271 0 -24 -25 c-24 -23 -25 -29 -25 -160 l0 -135 -640 0 -640 0 0 880 0 880 360 0 360 0 0 -375z m480 90 l0 -285 -67 45 c-37 25 -79 45 -93 45 -14 0 -56 -20 -93 -45 l-67 -45 0 285 0 285 160 0 160 0 0 -285z m2572 -397 c91 -45 147 -103 191 -196 l32 -67 3 -887 3 -888 -721 0 -720 0 0 159 0 159 268 4 c256 4 270 5 347 31 115 38 199 91 290 182 91 91 143 174 183 290 l27 80 0 355 0 355 -32 67 c-44 93 -100 151 -191 196 -72 35 -81 37 -172 37 -91 0 -100 -2 -172 -37 -91 -45 -147 -103 -191 -196 l-32 -67 -5 -228 c-6 -286 7 -267 -187 -267 l-134 0 3 328 3 327 32 67 c17 37 50 87 72 111 44 48 135 101 197 116 22 5 216 9 435 8 l395 -2 76 -37z m-418 -290 c58 -17 138 -99 155 -159 9 -34 12 -124 9 -355 -4 -291 -6 -313 -27 -371 -61 -168 -184 -290 -358 -356 -57 -21 -68 -22 -635 -25 l-578 -3 0 241 0 240 458 0 c528 0 523 -1 595 80 24 26 49 66 55 88 8 24 12 112 12 232 0 231 6 256 75 325 70 71 145 90 239 63z m-1594 -1028 l0 -400 -160 0 -160 0 0 400 0 400 160 0 160 0 0 -400z m-480 0 l0 -80 -136 0 c-171 0 -204 9 -271 77 -86 84 -89 83 177 83 l230 0 0 -80z m2720 -960 l0 -80 -720 0 -720 0 0 80 0 80 720 0 720 0 0 -80z"/>
    </g>
</svg>
