<svg version="1.0" xmlns="http://www.w3.org/2000/svg" width="30pt" height="30pt" viewBox="0 0 500.000000 500.000000" preserveAspectRatio="xMidYMid meet">
    <g transform="translate(0.000000,500.000000) scale(0.100000,-0.100000)" fill="#000000" stroke="none">
        <path d="M2300 4225 c-288 -40 -509 -119 -730 -262 -253 -164 -451 -389 -590 -668 -112 -226 -164 -421 -177 -654 -8 -151 11 -162 21 -14 23 319 113 586 283 843 93 140 290 342 433 442 210 149 466 248 745 289 108 16 342 13 462 -6 618 -97 1128 -524 1329 -1110 27 -81 39 -103 49 -93 8 7 -48 169 -88 259 -128 279 -345 532 -607 706 -179 120 -446 225 -650 258 -149 23 -353 27 -480 10z"/>
        <path d="M4363 3901 c-77 -20 -153 -119 -153 -201 0 -34 -2 -36 -47 -48 -62 -17 -127 -81 -143 -142 -15 -56 -7 -126 19 -178 23 -44 93 -110 128 -118 19 -5 20 -9 10 -31 -9 -21 -8 -27 9 -41 12 -10 28 -38 38 -63 9 -25 35 -70 57 -100 76 -101 96 -166 68 -222 -10 -21 -9 -21 10 2 26 29 28 98 5 144 -9 18 -37 60 -61 94 -24 33 -48 76 -55 93 -10 29 -9 35 12 50 18 14 22 24 17 48 -5 22 -1 34 13 47 20 18 20 17 20 -31 0 -30 10 -72 26 -109 73 -169 83 -201 84 -255 0 -39 3 -51 10 -40 26 40 9 121 -58 275 -16 39 -33 90 -37 115 l-7 45 36 -42 c20 -23 53 -52 74 -64 20 -12 38 -24 40 -25 2 -1 -1 -11 -7 -22 -9 -16 -7 -24 5 -36 8 -9 12 -21 8 -28 -4 -6 -10 -63 -14 -125 -5 -97 -9 -115 -28 -136 -27 -29 -28 -41 -2 -27 32 17 47 59 53 150 7 105 22 149 53 161 30 11 41 36 26 59 -9 14 -4 24 28 55 55 54 83 124 83 210 1 47 -5 80 -16 101 -18 35 -66 79 -96 89 -18 6 -18 7 0 55 24 64 24 143 0 197 -33 73 -126 114 -208 94z m128 -44 c19 -12 42 -38 51 -57 24 -48 23 -143 -2 -197 -16 -37 -23 -43 -50 -43 -17 0 -49 -9 -70 -20 -39 -20 -40 -20 -40 -1 0 30 -49 82 -97 103 -39 17 -43 22 -43 54 0 137 147 231 251 161z m-215 -237 c29 -15 48 -34 65 -64 l23 -44 -27 -54 c-20 -39 -27 -68 -27 -110 0 -52 -3 -58 -35 -87 -44 -39 -69 -39 -127 -2 -68 43 -103 108 -103 192 0 57 4 72 30 109 31 45 90 79 134 80 14 0 44 -9 67 -20z m293 -95 c45 -23 79 -71 87 -121 14 -96 -39 -221 -110 -259 -34 -18 -36 -18 -76 0 -49 22 -105 83 -121 133 -6 19 -9 61 -7 93 3 46 11 67 34 96 54 67 131 90 193 58z m-309 -351 c0 -9 -12 -14 -35 -14 -32 0 -35 2 -25 19 5 11 15 21 22 24 16 6 38 -11 38 -29z m288 -92 c3 -19 -1 -22 -27 -22 -34 0 -36 2 -20 31 13 26 43 20 47 -9z"/>
        <path d="M4354 3850 c-23 -9 -74 -66 -74 -82 0 -5 12 4 26 21 34 40 58 54 114 62 l45 6 -45 1 c-25 0 -54 -3 -66 -8z"/>
        <path d="M4532 3710 c-1 -25 -6 -60 -11 -78 -6 -18 -6 -30 -1 -27 13 8 22 65 17 110 l-4 40 -1 -45z"/>
        <path d="M4076 3484 c-18 -48 4 -145 41 -175 9 -8 6 4 -9 32 -16 31 -23 61 -23 102 0 31 -1 57 -1 57 -1 0 -5 -7 -8 -16z"/>
        <path d="M4182 3277 c12 -28 32 -32 34 -6 1 9 0 10 -3 1 -3 -8 -11 -5 -24 10 l-19 23 12 -28z"/>
        <path d="M4237 3294 c-4 -4 -7 -14 -7 -23 0 -11 3 -12 11 -4 6 6 10 16 7 23 -2 6 -7 8 -11 4z"/>
        <path d="M4624 3373 c1 -32 -2 -74 -6 -93 -7 -34 -7 -34 7 -10 15 27 20 127 7 148 -5 7 -8 -13 -8 -45z"/>
        <path d="M4370 3285 c0 -16 40 -78 46 -72 3 3 -6 23 -20 44 -14 20 -26 33 -26 28z"/>
        <path d="M4532 3185 c0 -16 2 -22 5 -12 2 9 2 23 0 30 -3 6 -5 -1 -5 -18z"/>
        <path d="M4470 3184 c0 -6 7 -17 15 -24 12 -10 16 -9 21 4 4 9 4 20 0 23 -3 4 -6 -2 -6 -12 0 -18 -1 -18 -15 1 -8 10 -15 14 -15 8z"/>
        <path d="M4630 2888 c25 -13 50 -34 57 -48 33 -66 0 -149 -72 -184 -39 -19 -41 -19 -165 0 -262 40 -454 20 -614 -64 -88 -46 -186 -135 -186 -169 0 -75 -143 -243 -207 -243 -33 0 -47 35 -46 122 2 137 49 252 102 246 23 -3 26 -8 29 -50 3 -40 6 -48 23 -48 16 0 19 7 19 40 0 57 -34 90 -91 90 -80 0 -137 -60 -160 -171 -23 -109 -103 -249 -143 -249 -31 0 -39 39 -31 154 13 188 14 181 -17 184 -25 3 -27 -1 -57 -95 -54 -174 -145 -280 -182 -212 -7 15 -9 68 -4 178 8 182 0 214 -58 229 -66 18 -106 -13 -167 -129 -39 -74 -49 -85 -30 -33 15 39 4 64 -29 64 -30 0 -51 -16 -51 -40 0 -65 -76 -190 -148 -245 -84 -65 -116 -41 -115 87 2 137 49 252 102 246 23 -3 26 -8 29 -50 3 -40 6 -48 23 -48 16 0 19 7 19 40 0 57 -34 90 -91 90 -82 0 -132 -55 -164 -180 -35 -137 -114 -258 -153 -234 -14 9 -17 28 -17 110 0 55 2 126 5 159 5 59 5 60 -22 63 -23 3 -28 -2 -42 -46 -46 -136 -42 -238 10 -289 62 -63 136 -36 184 66 13 28 27 51 30 51 4 0 10 -14 14 -31 9 -45 66 -99 105 -99 60 0 139 58 204 150 17 25 17 24 11 -50 -5 -62 -3 -78 10 -89 9 -7 21 -11 28 -8 8 2 28 53 46 113 58 189 134 321 180 312 34 -7 36 -33 17 -177 -15 -115 -16 -148 -6 -180 15 -51 53 -81 101 -81 45 0 81 26 119 87 l28 45 6 -44 c11 -84 99 -126 161 -77 15 12 41 46 58 76 l31 55 13 -39 c28 -80 97 -112 167 -77 78 40 179 174 181 243 1 32 8 41 71 89 162 122 390 166 654 126 178 -27 258 -9 300 66 24 42 28 112 8 149 -16 31 -54 59 -92 66 -25 5 -22 2 15 -17z"/>
        <path d="M4558 2893 c7 -3 16 -2 19 1 4 3 -2 6 -13 5 -11 0 -14 -3 -6 -6z"/>
        <path d="M1600 2861 c-129 -28 -220 -142 -220 -275 0 -71 16 -119 50 -156 38 -41 59 -30 26 13 -85 112 -37 300 95 367 110 56 214 24 272 -85 33 -60 31 -211 -2 -278 -24 -50 -70 -87 -107 -87 -28 0 -54 30 -54 64 0 15 -7 29 -16 33 -13 5 -15 26 -12 152 l3 146 -27 3 c-25 3 -28 0 -28 -25 0 -91 -24 -367 -41 -483 -12 -74 -23 -150 -26 -167 -4 -28 -2 -34 22 -43 61 -23 80 18 91 202 6 109 8 117 25 108 30 -17 117 -11 157 9 48 25 76 56 101 112 62 140 14 299 -109 361 -59 30 -141 42 -200 29z"/>
        <path d="M2021 2644 c-24 -30 -27 -54 -9 -72 18 -18 45 -15 68 8 24 24 26 53 4 74 -22 23 -40 20 -63 -10z"/>
        <path d="M3138 2653 c-35 -41 -28 -93 12 -93 49 0 81 78 41 100 -27 14 -36 13 -53 -7z"/>
        <path d="M4176 2488 c-3 -18 -7 -73 -10 -123 -10 -187 -68 -400 -161 -591 -230 -473 -654 -800 -1187 -916 -89 -19 -133 -22 -318 -22 -237 0 -320 12 -519 76 -449 144 -828 491 -1014 930 -24 57 -50 124 -57 151 -12 46 -25 65 -37 53 -11 -10 57 -190 117 -311 82 -164 172 -287 320 -436 92 -92 156 -146 240 -202 191 -126 420 -224 616 -261 120 -22 321 -38 399 -31 296 26 489 76 693 179 169 85 281 165 421 300 312 303 491 693 517 1129 5 75 4 107 -4 107 -6 0 -13 -15 -16 -32z"/>
        <path d="M179 2481 c-28 -28 -34 -52 -29 -111 5 -64 57 -115 127 -126 55 -8 97 3 224 61 142 65 240 87 384 88 189 1 299 -37 395 -139 54 -57 58 -58 36 -15 -38 72 -183 160 -301 182 -80 15 -294 6 -365 -16 -30 -9 -107 -41 -172 -71 -133 -62 -189 -74 -236 -50 -35 18 -66 58 -76 99 -9 36 18 93 53 112 20 11 22 14 8 15 -10 0 -32 -13 -48 -29z"/>
        <path d="M520 2176 c0 -2 25 -18 55 -35 53 -30 100 -85 88 -103 -3 -5 -14 -2 -24 8 -24 22 -24 13 1 -37 24 -46 19 -65 -12 -48 -16 8 -22 8 -29 -2 -6 -10 -10 -10 -23 0 -12 10 -19 11 -29 2 -11 -8 -23 -1 -54 35 -36 39 -45 44 -70 38 -85 -20 -108 -55 -118 -180 -6 -73 -10 -84 -26 -84 -15 0 -19 -7 -19 -36 0 -20 7 -42 15 -48 9 -7 19 -53 29 -131 13 -99 20 -123 37 -137 19 -16 47 -18 245 -18 211 0 225 1 244 20 11 11 20 26 20 33 0 6 5 61 10 122 8 77 15 112 25 118 9 5 15 23 15 43 0 27 -5 37 -20 41 -16 4 -20 14 -20 49 0 75 -20 146 -50 176 -23 22 -37 28 -74 28 -42 0 -47 2 -60 34 -14 34 -56 71 -113 100 -33 16 -43 19 -43 12z m-55 -166 c3 -5 -3 -10 -15 -10 -11 0 -36 -6 -55 -14 -40 -17 -55 -58 -55 -148 0 -32 -5 -60 -11 -64 -16 -10 -6 161 11 199 17 36 109 63 125 37z m315 -8 c24 -12 38 -28 46 -52 15 -46 26 -170 15 -170 -12 0 -21 37 -21 88 0 92 -37 132 -121 132 -21 0 -39 5 -39 10 0 16 82 11 120 -8z m-281 -36 c21 -22 31 -24 95 -23 67 2 71 3 74 26 3 22 7 23 50 17 26 -3 53 -12 60 -20 17 -17 31 -78 32 -138 l0 -47 -222 -3 c-123 -2 -226 -1 -231 3 -11 8 4 156 17 175 10 13 55 29 92 33 6 1 21 -10 33 -23z m379 -205 c8 -4 12 -19 10 -32 l-3 -24 -308 -3 -308 -2 3 27 3 28 185 5 c325 10 405 10 418 1z m-400 -113 l3 -38 -40 0 c-35 0 -41 3 -47 25 -10 42 1 57 43 53 36 -3 38 -5 41 -40z m102 1 l0 -40 -42 3 c-42 3 -43 4 -46 41 l-3 37 45 0 46 0 0 -41z m100 1 l0 -40 -40 0 -40 0 0 40 0 40 40 0 40 0 0 -40z m85 0 c0 -33 -2 -35 -32 -35 -18 0 -33 3 -33 8 0 4 0 21 0 38 0 28 2 30 33 27 29 -3 32 -6 32 -38z m81 -72 c-8 -123 -15 -144 -52 -158 -14 -6 -115 -10 -224 -10 -248 0 -234 -9 -252 153 l-14 117 38 0 c37 0 38 -1 38 -35 0 -29 -4 -35 -22 -36 -21 -1 -21 -2 -3 -6 26 -7 35 -21 35 -55 0 -22 -5 -28 -22 -29 l-23 -2 23 -4 c15 -3 22 -12 22 -26 0 -12 5 -29 10 -37 7 -11 10 -5 10 23 0 37 0 37 40 37 38 0 40 -2 42 -32 l1 -33 4 33 c4 30 7 32 44 32 32 0 39 -3 39 -20 0 -11 5 -20 10 -20 6 0 10 9 10 21 0 17 5 20 38 17 28 -2 36 -7 34 -20 -1 -9 2 -19 8 -23 6 -4 10 4 10 19 0 23 4 26 35 26 31 0 35 -3 36 -27 1 -28 1 -28 8 -3 4 14 17 27 31 31 24 7 24 7 3 8 -20 1 -23 6 -23 41 0 31 4 40 18 40 16 1 16 1 0 11 -18 10 -25 59 -11 72 3 4 20 7 36 7 l30 0 -7 -112z m-363 -10 c6 -42 -2 -50 -44 -46 -31 3 -34 6 -37 41 l-3 37 39 0 c37 0 40 -2 45 -32z m97 -8 l0 -40 -40 0 -40 0 0 40 0 40 40 0 40 0 0 -40z m98 3 c-3 -36 -5 -38 -40 -41 l-38 -3 0 40 0 41 41 0 40 0 -3 -37z m82 -3 c0 -39 -1 -40 -35 -40 -34 0 -35 1 -35 40 0 39 1 40 35 40 34 0 35 -1 35 -40z"/>
    </g>
</svg>
