<svg width="900" height="180" viewBox="0 0 597 120" fill="#fff" xmlns="http://www.w3.org/2000/svg">
    <path d="M584.333 2.60117C587.666 4.3345 591 7.1345 591.933 9.00117C596.333 17.8012 591.933 28.8678 582.333 33.5345C577.133 36.0678 576.866 36.0678 560.333 33.5345C525.4 28.2012 499.8 30.8678 478.466 42.0678C466.733 48.2012 453.666 60.0678 453.666 64.6012C453.666 74.6012 434.6 97.0012 426.066 97.0012C421.666 97.0012 419.8 92.3345 419.933 80.7345C420.2 62.4678 426.466 47.1345 433.533 47.9345C436.6 48.3345 437 49.0012 437.4 54.6012C437.8 59.9345 438.2 61.0012 440.466 61.0012C442.6 61.0012 443 60.0678 443 55.6678C443 48.0678 438.466 43.6678 430.866 43.6678C420.2 43.6678 412.6 51.6678 409.533 66.4678C406.466 81.0012 395.8 99.6678 390.466 99.6678C386.333 99.6678 385.266 94.4678 386.333 79.1345C388.066 54.0678 388.2 55.0012 384.066 54.6012C380.733 54.2012 380.466 54.7345 376.466 67.2678C369.266 90.4678 357.133 104.601 352.2 95.5345C351.266 93.5345 351 86.4678 351.666 71.8012C352.733 47.5345 351.666 43.2678 343.933 41.2678C335.133 38.8678 329.8 43.0012 321.666 58.4678C316.466 68.3345 315.133 69.8012 317.666 62.8678C319.666 57.6678 318.2 54.3345 313.8 54.3345C309.8 54.3345 307 56.4678 307 59.6678C307 68.3345 296.866 85.0012 287.266 92.3345C276.066 101.001 271.8 97.8012 271.933 80.7345C272.2 62.4678 278.466 47.1345 285.533 47.9345C288.6 48.3345 289 49.0012 289.4 54.6012C289.8 59.9345 290.2 61.0012 292.466 61.0012C294.6 61.0012 295 60.0678 295 55.6678C295 48.0678 290.466 43.6678 282.866 43.6678C271.933 43.6678 265.266 51.0012 261 67.6678C256.333 85.9345 245.8 102.068 240.6 98.8678C238.733 97.6678 238.333 95.1345 238.333 84.2012C238.333 76.8678 238.6 67.4012 239 63.0012C239.666 55.1345 239.666 55.0012 236.066 54.6012C233 54.2012 232.333 54.8678 230.466 60.7345C224.333 78.8678 224.866 92.4678 231.8 99.2678C240.066 107.668 249.933 104.068 256.333 90.4678C258.066 86.7345 259.933 83.6678 260.333 83.6678C260.866 83.6678 261.666 85.5345 262.2 87.8012C263.4 93.8012 271 101.001 276.2 101.001C284.2 101.001 294.733 93.2678 303.4 81.0012C305.666 77.6678 305.666 77.8012 304.866 87.6678C304.2 95.9345 304.466 98.0678 306.2 99.5345C307.4 100.468 309 101.001 309.933 100.601C311 100.335 313.666 93.5345 316.066 85.5345C323.8 60.3345 333.933 42.7345 340.066 43.9345C344.6 44.8678 344.866 48.3345 342.333 67.5345C340.333 82.8678 340.2 87.2678 341.533 91.5345C343.533 98.3345 348.6 102.335 355 102.335C361 102.335 365.8 98.8678 370.866 90.7345L374.6 84.7345L375.4 90.6012C376.866 101.801 388.6 107.401 396.866 100.868C398.866 99.2678 402.333 94.7345 404.6 90.7345L408.733 83.4012L410.466 88.6012C414.2 99.2678 423.4 103.535 432.733 98.8678C443.133 93.5345 456.6 75.6678 456.866 66.4678C457 62.2012 457.933 61.0012 466.333 54.6012C487.933 38.3345 518.333 32.4678 553.533 37.8012C577.266 41.4012 587.933 39.0012 593.533 29.0012C596.733 23.4012 597.266 14.0678 594.6 9.1345C592.466 5.00117 587.4 1.26783 582.333 0.3345C579 -0.332167 579.4 0.0678331 584.333 2.60117Z" fill="white"/>
    <path d="M574.733 1.93426C575.666 2.33426 576.866 2.20093 577.266 1.80093C577.799 1.40093 576.999 1.00093 575.533 1.13426C574.066 1.13426 573.666 1.53426 574.733 1.93426Z" fill="white"/>
    <path d="M180.333 6.20091C163.133 9.93425 151 25.1342 151 42.8676C151 52.3342 153.133 58.7342 157.667 63.6676C162.733 69.1343 165.533 67.6676 161.133 61.9343C149.8 47.0009 156.2 21.9342 173.8 13.0009C188.467 5.53425 202.333 9.80091 210.067 24.3342C214.467 32.3342 214.2 52.4676 209.8 61.4009C206.6 68.0676 200.467 73.0009 195.533 73.0009C191.8 73.0009 188.333 69.0009 188.333 64.4676C188.333 62.4676 187.4 60.6009 186.2 60.0676C184.467 59.4009 184.2 56.6009 184.6 39.8009L185 20.3342L181.4 19.9342C178.067 19.5342 177.667 19.9342 177.667 23.2676C177.667 35.4009 174.467 72.2009 172.2 87.6676C170.6 97.5343 169.133 107.668 168.733 109.934C168.2 113.668 168.467 114.468 171.667 115.668C179.8 118.734 182.333 113.268 183.8 88.7343C184.6 74.2009 184.867 73.1343 187.133 74.3343C191.133 76.6009 202.733 75.8009 208.067 73.1343C214.467 69.8009 218.2 65.6676 221.533 58.2009C229.8 39.5342 223.4 18.3342 207 10.0676C199.133 6.06758 188.2 4.46758 180.333 6.20091Z" fill="white"/>
    <path d="M236.466 35.1336C233.266 39.1336 232.866 42.3336 235.266 44.7336C237.666 47.1336 241.266 46.7336 244.333 43.6669C247.533 40.4669 247.8 36.6003 244.866 33.8003C241.933 30.7336 239.533 31.1336 236.466 35.1336Z" fill="white"/>
    <path d="M385.4 33.934C380.733 39.4007 381.666 46.334 387 46.334C393.533 46.334 397.8 35.934 392.466 33.0007C388.866 31.134 387.666 31.2673 385.4 33.934Z" fill="white"/>
    <path d="M4.07913 26.8672C0.345794 30.6006 -0.454206 33.8006 0.21246 41.6672C0.879127 50.2006 7.81246 57.0006 17.1458 58.4672C24.4791 59.5339 30.0791 58.0672 47.0125 50.3339C65.9458 41.6672 79.0125 38.7339 98.2125 38.6006C123.412 38.4672 138.079 43.5339 150.879 57.1339C158.079 64.7339 158.612 64.8672 155.679 59.1339C150.612 49.5339 131.279 37.8006 115.546 34.8672C104.879 32.8672 76.3458 34.0672 66.8791 37.0006C62.8791 38.2006 52.6125 42.4672 43.9458 46.4672C26.2125 54.7339 18.7458 56.3339 12.4791 53.1339C7.81246 50.7339 3.67913 45.4006 2.34579 39.9339C1.14579 35.1339 4.74579 27.5339 9.41246 25.0006C12.0791 23.5339 12.3458 23.1339 10.4791 23.0006C9.14579 23.0006 6.21246 24.7339 4.07913 26.8672Z" fill="white"/>
    <path d="M546.233 51.3154C541.71 46.8093 532.089 45.4979 526.754 48.7425C524.542 50.0878 524.328 50.0294 521.665 47.4083C517.965 43.8155 511.081 41.876 506.443 43.1888C502.172 44.3727 497.952 47.6928 495.657 51.5391C493.756 54.8624 492.391 62.2897 493.335 65.0142C493.805 66.5192 493.586 66.7463 491.737 66.9288C489.994 67.1405 489.645 67.4467 489.446 69.1702C489.297 70.3915 488.145 72.6002 486.937 74.2773C485.687 75.8857 483.847 79.455 482.815 82.1556C479.424 91.3806 476.032 95.3285 471.217 95.6179C469.432 95.7609 469.474 95.8297 471.765 96.2268C474.74 96.868 479.313 94.2754 481.343 90.873C482.138 89.5416 483.699 85.9534 484.907 82.9569C486.05 80 487.843 76.6475 488.657 75.4932C490.125 73.6578 490.557 73.4892 492.412 74.3404C494.076 75.0248 494.894 74.9043 496.246 73.6107C497.468 72.3962 498.416 72.1966 499.848 72.6454C501.856 73.3091 501.791 73.3487 498.668 75.248C496.716 76.435 494.402 78.7848 492.664 81.3496C484.723 93.0588 483.059 95.013 479.588 97.2184C477.05 98.7616 476.395 99.4428 477.404 99.4891C481.094 99.6951 485.653 95.3206 492.869 84.6177C494.737 81.9738 497.344 78.7862 498.803 77.5219L501.438 75.2597L500.211 79.3983C499.552 81.6843 499.046 85.1021 499.144 87.0217C499.2 88.8724 499.172 90.5856 499.191 90.7628C499.209 90.9399 498.433 91.1292 497.466 91.1517C496.049 91.1656 495.612 91.6197 495.333 92.9201C495.083 93.8266 494.469 94.5766 493.846 94.5784C493.289 94.5406 489.329 96.3832 485.128 98.5612C478.608 102.055 477.269 102.492 475.108 102.016C472.092 101.306 471.269 101.712 473.268 102.947C475.713 104.476 479.073 103.846 485.244 100.658C492.369 96.9849 495.859 96.2759 497.937 97.9338C499.908 99.5625 501.995 99.33 502.863 97.388C503.398 96.2149 504.257 96.1632 507.613 97.1381C513.428 98.7853 519.154 97.9419 524.749 94.5391C527.849 92.7482 529.745 91.0297 530.651 89.442C532.175 86.8187 533.029 81.7754 532.425 79.3158C532.062 77.8401 532.127 77.8005 536.003 77.1396C541.171 76.2584 546.311 73.1325 548.82 69.3447C552.189 64.1859 550.965 56.1655 546.233 51.3154ZM548.726 61.8625C548.74 63.6445 548.011 66.2556 547.151 67.6266C545.032 71.177 538.81 74.8671 534.25 75.2838C531.174 75.6471 530.49 75.4029 529.361 73.5454C528.65 72.3758 526.725 70.5304 525.131 69.5209C522.198 67.6291 522.156 67.5603 523.392 66.8085C525.344 65.6215 526.677 60.1929 526.035 56.0597C525.509 52.7039 525.667 52.2309 527.749 50.9647C536.663 45.5439 548.929 51.9378 548.726 61.8625ZM524.311 56.4486C524.548 59.0372 524.107 61.0962 522.866 63.4528L520.966 66.7761L516.323 67.0552C512.949 67.2224 510.769 67.8883 508.037 69.5502C504.653 71.6077 504.137 71.6387 500.912 70.5847C496.533 69.1007 495.487 67.3808 495.468 61.9265C495.42 55.5468 498.185 50.567 503.65 47.2433C507.359 44.9879 508.502 44.6696 511.997 44.9943C516.222 45.3465 520.903 48.0602 522.809 51.0478C523.394 52.0109 524.064 54.431 524.311 56.4486ZM530.389 80.3653C530.775 84.3712 529.075 88.6096 526.157 91.1384C520.496 95.9001 510.146 97.1998 504.703 93.8187C502.11 92.1918 502.026 92.0542 501.523 88.5901C500.905 84.3485 502.53 78.0822 505.114 75.003C506.099 73.8385 508.706 71.9702 510.872 70.8416C513.99 69.2279 515.691 68.9474 518.54 69.3822C525.159 70.4463 529.877 74.8336 530.389 80.3653ZM494.624 72.9951C494.038 73.3512 493.211 72.7235 492.249 71.1411C490.91 68.9396 490.914 68.6541 492.439 68.6694C493.364 68.5781 494.433 68.8704 494.921 69.2333C495.98 70.0967 495.795 72.2829 494.624 72.9951ZM500.688 96.4491C499.577 97.4073 499.215 97.2508 498.127 95.4621C496.704 93.1229 496.751 92.9062 499.307 92.8595C501.543 92.7251 502.407 95.0264 500.688 96.4491Z" fill="white"/>
    <path d="M540.548 50.0456C538.797 49.1036 532.787 48.8926 531.868 49.7037C531.581 49.9572 532.742 50.2304 534.469 50.2198C538.591 50.259 540.683 51.0084 544.147 54.0072L546.906 56.4387L544.549 53.6523C543.207 52.1325 541.479 50.5217 540.548 50.0456Z" fill="white"/>
    <path d="M542.084 67.921C540.653 69.0624 538.435 70.4154 537.148 70.9459C535.801 71.4084 535.143 71.9889 535.608 72.184C536.827 72.6816 540.492 70.5366 542.658 68.0194L544.611 65.8121L542.084 67.921Z" fill="white"/>
    <path d="M504.938 51.4485C501.239 52.8825 496.709 59.1176 496.832 62.7723C496.821 63.6973 497.367 62.9101 498.238 60.6157C499.233 58.1103 500.624 56.1707 503.008 54.0669C504.81 52.4762 506.272 51.0849 506.272 51.0849C506.221 51.0277 505.612 51.1582 504.938 51.4485Z" fill="white"/>
    <path d="M498.644 68.4024C497.696 70.6197 498.604 72.119 500.234 70.91C500.816 70.5115 500.818 70.3953 500.121 70.6646C499.484 70.8823 499.202 70.2106 499.335 68.5978L499.592 66.1852L498.644 68.4024Z" fill="white"/>
    <path d="M503.007 70.3291C502.606 70.4027 501.846 70.8627 501.256 71.3832C500.536 72.0192 500.574 72.1953 501.377 72.0481C501.979 71.9376 502.773 71.5171 503.127 70.994C503.451 70.5682 503.408 70.2555 503.007 70.3291Z" fill="white"/>
    <path d="M527.98 90.2295C526.155 91.9421 523.541 93.942 522.225 94.6947C519.877 96.0507 519.877 96.0507 521.994 95.6146C524.338 95.0808 530.452 90.1959 531.023 88.362C531.18 87.7123 529.855 88.5743 527.98 90.2295Z" fill="white"/>
    <path d="M509.364 78.9003C508.384 79.7648 506.861 85.6902 507.57 85.7524C507.924 85.7835 508.637 84.1233 509.127 82.0872C509.556 80.1052 509.67 78.6301 509.364 78.9003Z" fill="white"/>
    <path d="M512.31 93.6389C511.337 94.4972 511.176 95.0498 512.089 94.8594C512.84 94.6073 513.691 93.8562 513.913 93.25C513.972 92.5821 513.343 92.7269 512.31 93.6389Z" fill="white"/>
    <path d="M508.543 90.2945C508.286 90.5215 508.17 91.3414 508.277 92.0676C508.46 93.1381 508.706 93.3309 509.518 93.1275C510.107 93.0177 510.579 92.6015 510.504 92.2573C510.523 91.9329 510.113 91.9869 509.684 92.3652C508.912 93.0462 508.861 92.9886 508.963 91.4623C508.985 90.6226 508.8 90.0675 508.543 90.2945Z" fill="white"/>
    <path d="M79.2392 58.2197C79.348 58.3286 81.5725 57.8467 84.1221 57.1488C88.6245 55.9139 94.1622 56.3648 94.4915 57.9942C94.6011 58.4288 93.8421 58.8608 92.7565 58.8575C90.2598 58.9585 90.7495 59.4485 94.8236 60.8178C98.6259 62.0234 99.3888 63.3285 96.785 64.0805C95.4833 64.5109 95.1583 64.8356 95.3233 65.7588C95.5423 66.628 95.3257 66.8445 94.0776 67.0035C92.8837 67.1085 92.4502 67.4329 92.3982 68.4641C92.2377 69.4949 91.207 69.7632 87.5695 69.4808C83.4981 69.3057 82.7387 69.5206 81.7111 71.2002C78.1957 76.889 78.8542 80.0393 85.113 87.386C88.7595 91.6852 89.1413 92.5005 88.2748 93.3664C87.4624 94.1782 87.6266 94.7757 89.2043 96.3546C90.2924 97.4435 91.8684 98.2625 92.628 98.1562C93.4963 98.0503 96.5404 100.014 101.325 103.719C107.415 108.405 109.1 109.333 110.783 109.176C112.682 109.018 114.307 107.612 125.031 96.8968C136.458 85.478 137.162 84.6659 137.157 82.6033C137.154 81.4091 136.826 80.1054 136.445 79.7242C136.119 79.3976 133.397 76.1326 130.349 72.5409C126.594 67.9157 125.069 65.6313 125.284 64.7635C125.499 64.0042 124.845 62.6995 123.757 61.6106C122.288 60.1406 121.473 59.8668 120.443 60.4607C119.359 61.1088 118.598 60.7809 116.694 58.8753C112.614 54.792 107.668 52.0088 104.411 51.999C101.969 52.0459 100.884 52.4769 98.8803 54.4792C96.6057 56.7521 96.2261 56.9138 93.7811 55.8751C91.1732 54.7817 86.8856 55.0402 82.2209 56.546C79.5632 57.4607 78.8584 57.8386 79.2392 58.2197ZM85.2915 70.2339C85.726 70.3438 85.673 70.9407 85.0231 71.5901C84.4274 72.1854 83.3998 73.865 82.8061 75.3288C81.5646 78.419 82.9827 81.463 87.879 86.363C89.6199 88.1052 90.8724 89.9003 90.7651 90.4428C90.4426 91.8531 81.6812 82.0019 80.5346 79.013C79.4968 76.133 83.0105 69.6842 85.2915 70.2339ZM102.787 53.6225C104.739 52.977 106.368 53.0905 108.107 53.9642C111.422 55.6569 118.763 61.8127 118.168 62.408C117.518 63.0574 115.018 61.53 112.243 58.7533C107.238 53.7445 103.058 53.569 98.5085 58.1149C97.3712 59.2513 96.1244 59.9532 95.8523 59.681C94.9819 58.8099 99.6949 54.6445 102.787 53.6225ZM89.5266 70.7895C91.8608 70.8508 92.5112 70.4185 95.9229 66.9005C99.4427 63.1658 99.6049 62.8949 98.5161 61.4803C97.4817 60.1202 97.644 59.8493 100.299 57.8489C101.871 56.6052 103.822 55.634 104.637 55.6907C106.482 55.6963 110.559 58.2597 113.877 61.4723L116.434 64.0312L104.574 76.2086C98.0218 82.9739 92.3891 88.4935 91.9007 88.5464C90.8697 88.7061 83.6304 79.8366 83.3008 78.0986C83.1352 76.8496 84.7018 73.5432 86.4881 71.3231C86.7586 70.944 88.1695 70.7311 89.5266 70.7895ZM121.205 61.4401C121.856 61.2249 122.889 61.8251 123.488 62.6411L124.631 64.1101L108.113 80.9416L91.5414 97.7187L90.235 96.0863L88.8742 94.3995L98.6215 84.1156C115.679 65.983 120.012 61.6536 121.205 61.4401ZM105.69 89.2393L107.919 91.1458L105.753 93.3105C103.857 95.2046 103.369 95.366 101.847 94.4929C99.0209 92.7474 98.8006 91.3354 101.293 89.2803C103.406 87.4954 103.623 87.4961 105.69 89.2393ZM111.159 83.6648L113.335 85.8426L110.898 87.9522C108.46 90.0618 108.351 90.0615 106.176 88.2094L104 86.3573L106.437 83.922L108.929 81.4326L111.159 83.6648ZM116.521 78.1987L118.697 80.3764L116.53 82.5411L114.364 84.7058L112.188 82.528L110.012 80.3503L112.178 78.1856L114.345 76.0209L116.521 78.1987ZM121.124 73.5987C122.919 75.3953 122.92 75.6125 121.295 77.236C120.32 78.2101 119.345 78.8585 119.073 78.5863C118.855 78.3685 117.93 77.443 117.005 76.5174C115.482 74.993 115.482 74.7759 117.324 73.2615C119.058 71.8555 119.383 71.8565 121.124 73.5987ZM129.428 73.1352C135.686 80.2648 136.45 81.7869 135.207 84.5515C134.776 85.6358 129.523 91.3194 123.62 97.2182C110.189 110.639 111.437 110.372 101.648 102.526L94.5251 96.9135L96.5831 94.857C98.5869 92.8547 98.6955 92.855 100.545 94.7061C102.123 96.285 102.233 96.8281 101.312 97.8567C100.229 99.0476 100.284 99.102 101.476 98.3457C103.265 97.3198 104.514 97.5949 106.364 99.446C107.561 100.644 107.616 101.241 106.75 102.215L105.613 103.569L107.077 102.542C108.052 101.894 108.921 102.005 109.682 102.767C110.335 103.42 111.531 104.075 112.237 104.24C113.215 104.46 113.051 103.971 111.527 102.447C109.514 100.433 109.514 100.433 111.681 98.2679C113.739 96.2114 113.956 96.2121 115.696 97.7372L117.546 99.4797L115.967 97.4666C114.552 95.6168 114.605 95.3455 116.609 93.3432C118.342 91.6114 118.885 91.3959 119.809 92.3215C120.408 92.9204 121.168 93.1398 121.439 92.8692C121.764 92.5445 121.491 91.838 120.838 91.1847C119.913 90.2592 120.021 89.8252 121.971 88.2027C123.597 86.7963 124.302 86.6356 124.901 87.4516C125.336 87.9957 126.043 88.3778 126.585 88.2709C127.128 88.1639 126.909 87.5119 126.093 86.6953C124.842 85.443 124.895 85.0632 126.574 83.3856C128.253 81.708 128.633 81.6548 129.993 82.9074C131.57 84.3777 131.57 84.3777 130.589 82.6378C130.044 81.6591 130.041 80.2478 130.582 79.2723C131.501 77.5924 131.501 77.5924 130.309 78.6744C129.171 79.7023 128.737 79.5925 126.833 77.6869C125.146 75.9991 124.873 75.2927 125.632 74.535C126.444 73.6147 126.444 73.6147 125.033 73.9361C123.514 74.3658 120.469 72.0768 120.52 70.6114C120.465 70.2313 121.223 69.148 122.089 68.2821L123.714 66.6586L129.428 73.1352ZM110.313 93.3242C112.922 95.2862 112.924 96.1547 110.432 98.2098C108.59 99.7241 108.264 99.7232 106.198 97.98L104.022 96.1279L106.135 94.0173C108.138 92.0149 108.41 91.9615 110.313 93.3242ZM116.001 88.5104L118.177 90.6882L116.011 92.8529L113.845 95.0176L111.668 92.8398L109.492 90.662L111.659 88.4973L113.825 86.3326L116.001 88.5104ZM121.145 83.0436C122.941 85.1659 122.942 85.383 121.21 87.4405L119.315 89.6603L117.139 87.4825L114.908 85.2503L117.129 83.0315L119.295 80.8668L121.145 83.0436ZM125.75 78.7693C127.871 80.8926 127.872 81.0012 126.03 82.8411C124.189 84.6811 124.08 84.6808 121.959 82.5575C119.837 80.4341 119.837 80.3256 121.678 78.4856C123.519 76.6456 123.628 76.6459 125.75 78.7693Z" fill="white"/>
</svg>
