<svg version="1.0" xmlns="http://www.w3.org/2000/svg" width="30pt" height="30pt" viewBox="0 0 512.000000 512.000000" preserveAspectRatio="xMidYMid meet">
    <g transform="translate(0.000000,512.000000) scale(0.100000,-0.100000)" fill="#000000" stroke="none">
        <path d="M2513 5107 c-11 -7 -132 -112 -268 -235 -169 -153 -252 -221 -263 -218 -54 16 -629 136 -653 136 -17 0 -40 -11 -59 -27 -26 -24 -45 -74 -135 -350 l-105 -322 -253 -81 c-138 -45 -287 -93 -330 -107 -64 -20 -82 -31 -98 -57 -10 -17 -19 -42 -19 -56 0 -14 31 -169 69 -344 l70 -320 -22 -26 c-12 -14 -112 -126 -222 -248 -110 -123 -205 -233 -212 -245 -16 -28 -16 -66 0 -94 7 -12 112 -132 235 -268 151 -167 221 -252 218 -263 -17 -59 -136 -629 -136 -653 0 -17 11 -41 27 -59 24 -26 71 -44 343 -131 173 -55 319 -104 324 -109 5 -5 53 -148 108 -317 54 -169 107 -319 117 -333 10 -14 30 -31 46 -39 25 -12 59 -7 365 59 l337 73 247 -224 c136 -123 261 -229 279 -235 38 -14 81 -3 116 29 212 194 475 427 483 427 6 0 158 -32 338 -71 321 -69 329 -71 362 -55 20 10 40 27 47 39 6 12 56 161 111 331 54 170 102 312 107 316 4 4 123 44 263 89 362 116 373 120 391 134 23 18 39 52 39 84 0 22 -97 489 -134 645 -3 12 69 98 221 265 123 137 231 262 239 280 11 26 12 38 1 67 -7 22 -99 131 -235 282 -151 166 -221 251 -218 262 17 59 136 629 136 653 0 17 -11 41 -27 59 -24 26 -74 45 -350 135 l-322 105 -81 253 c-45 138 -93 287 -107 330 -20 64 -31 82 -57 98 -17 10 -42 19 -56 19 -14 0 -169 -31 -344 -70 l-320 -69 -35 31 c-20 17 -132 117 -249 222 -117 105 -223 196 -235 203 -12 7 -33 12 -47 12 -14 0 -35 -5 -47 -12z m260 -430 c302 -273 272 -250 331 -244 28 3 177 33 330 66 153 34 280 60 281 59 1 -2 42 -126 89 -277 86 -270 112 -337 138 -358 7 -6 148 -54 313 -107 164 -53 300 -98 302 -99 1 -2 -27 -139 -62 -305 -36 -166 -65 -315 -65 -330 0 -36 31 -73 347 -418 l93 -101 -221 -244 -220 -244 4 -65 c4 -52 100 -520 123 -592 4 -14 -24 -26 -173 -73 -312 -98 -426 -139 -450 -160 -18 -15 -47 -95 -119 -320 -53 -165 -98 -302 -100 -304 -2 -2 -145 26 -317 63 -259 55 -319 65 -342 56 -37 -14 -90 -59 -309 -262 -99 -92 -183 -168 -186 -168 -3 0 -95 81 -204 181 -229 207 -273 244 -302 253 -13 4 -154 -21 -334 -60 -171 -36 -315 -62 -320 -58 -4 5 -46 132 -94 283 -48 150 -96 291 -106 311 l-19 38 -308 102 c-170 57 -309 104 -311 105 -1 1 27 138 63 305 36 166 65 314 65 328 -1 36 -30 73 -246 309 -101 111 -184 207 -184 213 0 6 81 99 179 208 223 245 251 280 251 314 0 14 -29 162 -65 329 -36 166 -64 303 -63 304 2 2 137 46 301 98 165 53 308 104 319 114 30 26 47 72 138 364 45 145 83 265 84 266 2 2 126 -24 277 -57 151 -34 301 -63 334 -67 l60 -5 235 215 c129 119 241 216 248 216 8 1 104 -81 215 -182z"/>
        <path d="M2409 4260 c-429 -39 -853 -253 -1128 -571 -678 -783 -529 -1957 321 -2540 776 -532 1851 -322 2375 463 384 576 385 1321 2 1893 -293 437 -752 708 -1280 755 -126 11 -163 11 -290 0z m403 -229 c413 -71 771 -308 1002 -664 319 -490 316 -1136 -7 -1625 -282 -426 -738 -672 -1247 -672 -828 0 -1490 662 -1490 1490 0 736 523 1352 1252 1474 127 21 354 20 490 -3z"/>
        <path d="M3195 3376 c-22 -7 -51 -18 -65 -25 -14 -7 -220 -207 -457 -444 l-433 -431 -118 117 c-147 145 -180 162 -307 162 -71 0 -100 -5 -137 -22 -66 -30 -133 -96 -165 -162 -24 -47 -28 -69 -28 -136 0 -129 13 -152 196 -344 201 -209 307 -303 389 -344 60 -30 71 -32 170 -32 124 0 160 14 274 105 115 93 1048 1034 1074 1084 116 222 -47 488 -297 485 -31 0 -74 -6 -96 -13z m173 -212 c48 -33 65 -101 38 -152 -22 -41 -1036 -1048 -1076 -1068 -49 -24 -134 -23 -185 4 -22 11 -130 111 -241 224 -157 159 -202 210 -207 236 -18 91 86 172 166 131 12 -6 92 -81 178 -165 153 -152 156 -154 199 -154 l45 0 470 469 c258 258 479 474 490 479 29 17 97 14 123 -4z"/>
    </g>
</svg>
