<svg class="nav-icon" version="1.0" xmlns="http://www.w3.org/2000/svg" width="30pt" height="30pt" viewBox="0 0 512.000000 512.000000" preserveAspectRatio="xMidYMid meet">
    <g transform="translate(0.000000,512.000000) scale(0.100000,-0.100000)" fill="#000000" stroke="none">
        <path d="M331 4543 c-26 -9 -65 -36 -91 -62 -87 -87 -80 84 -80 -1921 0 -2005 -7 -1834 80 -1920 87 -88 -135 -80 2320 -80 2455 0 2233 -8 2320 80 87 86 80 -85 80 1920 0 2005 7 1834 -80 1920 -87 88 136 80 -2324 79 -1955 0 -2186 -2 -2225 -16z m4435 -177 l34 -34 0 -286 0 -286 -2240 0 -2240 0 0 286 0 286 34 34 34 34 2172 0 2172 0 34 -34z m34 -2172 l0 -1406 -34 -34 -34 -34 -2172 0 -2172 0 -34 34 -34 34 0 1406 0 1406 2240 0 2240 0 0 -1406z"/>
        <path d="M3695 4226 c-101 -44 -125 -178 -46 -257 112 -113 296 -12 267 146 -18 94 -131 151 -221 111z"/>
        <path d="M4255 4226 c-101 -44 -125 -178 -46 -257 112 -113 296 -12 267 146 -18 94 -131 151 -221 111z"/>
        <path d="M640 4080 l0 -80 800 0 800 0 0 80 0 80 -800 0 -800 0 0 -80z"/>
        <path d="M1450 3189 c-217 -38 -405 -140 -551 -298 -113 -121 -186 -254 -230 -421 -30 -110 -33 -337 -6 -444 89 -356 349 -621 706 -718 101 -28 341 -31 445 -5 185 46 324 125 461 262 136 136 206 257 257 445 32 118 32 336 0 457 -47 180 -126 320 -256 449 -128 128 -270 210 -445 255 -89 23 -297 33 -381 18z m270 -160 c177 -28 313 -100 445 -233 104 -105 171 -220 206 -352 28 -106 31 -289 5 -389 -28 -112 -107 -263 -178 -339 l-61 -67 -21 53 c-83 203 -300 351 -516 351 -216 0 -433 -148 -516 -351 l-21 -53 -61 66 c-72 79 -144 212 -174 322 -16 60 -21 106 -21 203 1 153 21 240 90 373 84 163 252 311 428 377 121 45 268 60 395 39z m-20 -1150 c132 -30 265 -168 294 -305 7 -30 5 -32 -62 -62 -204 -91 -423 -94 -634 -10 l-83 33 1 37 c3 92 102 221 213 277 93 47 160 55 271 30z"/>
        <path d="M1506 2950 c-63 -16 -153 -70 -197 -117 -22 -24 -55 -74 -72 -111 -29 -61 -32 -76 -32 -163 0 -90 2 -99 37 -171 45 -91 103 -147 196 -191 61 -29 76 -32 162 -32 86 0 101 3 162 32 93 44 151 100 196 191 35 72 37 81 37 172 0 91 -2 100 -37 172 -68 136 -188 217 -336 224 -42 2 -94 -1 -116 -6z m168 -162 c86 -26 166 -136 166 -228 0 -124 -116 -240 -240 -240 -124 0 -240 116 -240 240 0 63 23 114 75 165 70 71 145 90 239 63z"/>
        <path d="M3040 3120 l0 -80 720 0 720 0 0 80 0 80 -720 0 -720 0 0 -80z"/>
        <path d="M2880 2640 l0 -80 880 0 880 0 0 80 0 80 -880 0 -880 0 0 -80z"/>
        <path d="M3200 2160 l0 -80 560 0 560 0 0 80 0 80 -560 0 -560 0 0 -80z"/>
        <path d="M2880 1680 l0 -80 880 0 880 0 0 80 0 80 -880 0 -880 0 0 -80z"/>
        <path d="M2240 1200 l0 -80 1200 0 1200 0 0 80 0 80 -1200 0 -1200 0 0 -80z"/>
    </g>
</svg>
