<svg version="1.0" xmlns="http://www.w3.org/2000/svg" width="30pt" height="30pt" viewBox="0 0 512.000000 512.000000" preserveAspectRatio="xMidYMid meet">
    <g transform="translate(0.000000,512.000000) scale(0.100000,-0.100000)" fill="#000000" stroke="none">
        <path d="M1083 5085 c-62 -27 -68 -49 -68 -246 0 -193 6 -219 57 -245 l28 -15 0 -192 c0 -297 -14 -336 -180 -513 -172 -182 -190 -242 -190 -636 l0 -266 -133 -4 c-127 -3 -135 -4 -169 -30 -29 -22 -71 -96 -227 -403 -105 -206 -194 -389 -198 -405 -8 -40 14 -88 48 -105 18 -10 58 -15 109 -15 l80 0 0 -369 c0 -369 0 -370 23 -395 32 -36 74 -39 107 -6 19 19 20 33 20 395 l0 375 865 0 c938 0 903 -2 955 54 14 15 80 136 147 269 l122 242 1 -1202 0 -1203 -1045 0 -1045 0 0 398 c0 431 0 432 -55 446 -29 7 -79 -15 -89 -39 -3 -9 -6 -203 -6 -432 0 -472 0 -470 74 -504 40 -18 121 -19 2246 -19 2125 0 2206 1 2246 19 79 36 74 -30 74 1030 l0 941 80 0 c51 0 91 5 109 15 34 17 56 65 48 104 -4 16 -93 199 -198 406 -156 307 -198 381 -227 403 l-35 27 -334 3 c-183 1 -333 5 -333 8 0 3 87 97 194 209 197 207 251 279 286 380 22 64 41 197 34 235 -5 24 -2 26 72 42 131 30 210 77 347 206 142 133 164 165 147 216 -6 19 -21 41 -34 50 -39 25 -306 98 -380 104 l-68 5 8 41 c5 23 9 123 9 223 0 169 -1 184 -21 210 -12 16 -36 32 -57 37 -34 9 -48 4 -190 -66 -84 -42 -178 -96 -209 -121 l-56 -45 -36 53 c-42 60 -252 254 -298 273 -37 16 -90 2 -111 -31 -7 -12 -36 -87 -62 -167 -68 -204 -71 -276 -19 -457 5 -18 1 -25 -22 -33 -44 -17 -156 -95 -199 -139 -21 -23 -42 -41 -45 -41 -4 0 -13 19 -20 43 -19 63 -76 176 -120 233 -128 169 -323 228 -521 159 -145 -51 -333 -219 -457 -410 -109 -167 -97 -156 -131 -116 -43 49 -51 99 -51 311 l0 191 40 38 40 38 0 189 c0 211 -3 224 -66 250 -49 20 -864 20 -911 -1z m827 -245 l0 -110 -375 0 -375 0 0 103 c0 57 3 107 7 110 3 4 172 7 375 7 l368 0 0 -110z m1902 -67 c84 -76 113 -112 138 -168 18 -40 18 -41 -8 -120 l-27 -81 -108 -1 -109 -2 -15 37 c-8 20 -18 71 -20 114 -5 68 -2 89 27 182 18 58 37 106 42 106 4 0 41 -30 80 -67z m646 -164 c-3 -98 -6 -111 -40 -180 -23 -46 -57 -94 -91 -127 l-54 -53 -54 37 c-30 20 -77 47 -106 60 l-52 23 13 46 c38 124 120 212 272 288 127 64 118 72 112 -94z m-2628 -236 c0 -277 19 -347 119 -435 l50 -43 -44 -116 c-81 -214 -155 -548 -155 -709 0 -30 -3 -65 -6 -77 l-6 -23 -454 0 -454 0 0 263 c0 367 7 391 171 563 169 178 199 266 199 587 l0 197 290 0 290 0 0 -207z m1068 76 c131 -56 233 -254 273 -527 17 -124 7 -437 -20 -582 -22 -115 -75 -320 -93 -353 -8 -16 -43 -17 -560 -15 l-552 3 3 70 c14 425 215 951 466 1223 170 183 334 245 483 181z m1870 -207 c56 -14 102 -29 102 -33 0 -4 -34 -38 -75 -77 -79 -75 -135 -109 -224 -136 -78 -23 -108 -21 -115 7 -3 12 -21 48 -40 79 l-34 57 62 65 c59 60 66 65 112 68 70 4 96 1 212 -30z m-773 -13 c292 -91 438 -394 315 -656 -16 -35 -31 -63 -33 -63 -3 0 -102 54 -222 120 -136 75 -228 120 -246 120 -59 0 -91 -73 -51 -118 9 -11 105 -68 212 -127 107 -59 197 -109 199 -111 5 -5 -170 -184 -180 -184 -3 0 -64 32 -135 71 -177 98 -182 100 -221 84 -21 -9 -35 -23 -39 -41 -14 -54 4 -72 146 -151 74 -41 137 -76 139 -78 2 -3 -21 -31 -50 -64 l-54 -60 -277 0 c-216 -1 -278 2 -278 12 0 6 11 52 25 100 63 230 87 417 84 668 l-2 186 28 52 c40 73 86 123 155 170 145 96 319 122 485 70z m-1565 -1416 c0 -5 -74 -152 -164 -328 l-164 -320 -962 -3 -962 -2 169 330 168 330 958 0 c526 0 957 -3 957 -7z m2343 -323 l169 -330 -470 0 c-460 0 -470 0 -496 -21 -34 -27 -36 -79 -4 -109 21 -19 33 -20 390 -20 l368 0 0 -920 0 -920 -1045 0 -1045 0 0 1203 1 1202 122 -242 c67 -133 133 -254 147 -269 49 -53 61 -54 440 -54 l351 0 24 25 c30 29 32 64 6 96 l-19 24 -347 5 -347 5 -164 320 c-90 176 -164 323 -164 328 0 4 431 7 958 7 l957 0 168 -330z"/>
        <path d="M2449 3872 c-15 -13 -22 -30 -22 -51 0 -59 22 -69 238 -113 l197 -40 26 19 c37 28 38 88 2 114 -23 17 -342 89 -395 89 -13 0 -33 -8 -46 -18z"/>
        <path d="M2240 3447 c-46 -23 -53 -104 -11 -127 23 -12 594 -130 631 -130 51 0 85 63 60 109 -14 27 -43 35 -340 96 -151 30 -284 57 -295 60 -11 2 -31 -1 -45 -8z"/>
        <path d="M761 1104 c-27 -35 -26 -57 3 -91 l24 -28 314 -3 c172 -2 328 0 346 3 66 12 95 82 52 125 -19 19 -33 20 -369 20 l-350 0 -20 -26z"/>
        <path d="M768 730 c-24 -25 -29 -36 -24 -58 4 -15 16 -35 28 -44 18 -16 51 -18 362 -18 l343 0 21 23 c29 31 28 72 -3 102 l-24 25 -336 0 -337 0 -30 -30z"/>
    </g>
</svg>
