<?xml version="1.0" standalone="no"?>
<!DOCTYPE svg PUBLIC "-//W3C//DTD SVG 20010904//EN"
 "http://www.w3.org/TR/2001/REC-SVG-20010904/DTD/svg10.dtd">
<svg version="1.0" xmlns="http://www.w3.org/2000/svg"
 width="30px" height="30px" viewBox="0 0 512.000000 512.000000"
 preserveAspectRatio="xMidYMid meet">

<g transform="translate(0.000000,512.000000) scale(0.100000,-0.100000)"
fill="#black" stroke="none">
<path d="M470 5109 c-98 -19 -224 -101 -301 -196 -137 -169 -198 -430 -153
-651 45 -226 202 -409 385 -451 24 -6 178 -11 342 -11 l297 0 0 -799 c0 -496
4 -809 10 -825 6 -17 48 -51 117 -97 60 -39 109 -72 111 -74 2 -1 -46 -47
-107 -100 -67 -60 -114 -110 -121 -128 -14 -41 -13 -973 1 -1092 26 -209 98
-373 219 -496 80 -81 146 -123 250 -161 l65 -23 1467 -3 c1650 -3 1542 -7
1706 73 263 130 408 430 347 720 -47 226 -243 435 -467 500 l-58 16 0 1095 c0
919 -2 1099 -14 1122 -8 15 -70 68 -140 117 -69 50 -125 93 -126 97 0 3 42 32
93 63 115 72 137 95 137 144 0 49 -8 59 -120 144 -82 62 -95 77 -98 105 l-3
32 100 0 c97 0 102 1 133 29 l33 29 3 144 c2 101 -1 165 -12 218 -46 223 -230
409 -451 455 -60 13 -322 15 -1835 14 -971 -1 -1785 -5 -1810 -10z m211 -203
c87 -19 154 -54 205 -108 115 -121 154 -281 154 -628 l0 -170 -109 0 -110 0
15 37 c57 135 27 319 -70 430 -47 54 -142 100 -221 108 -73 7 -103 -6 -128
-57 -16 -32 -16 -40 -4 -70 19 -46 36 -57 101 -68 103 -17 149 -74 150 -186 0
-81 -35 -143 -97 -173 -186 -90 -388 153 -363 434 13 146 58 262 134 346 97
108 191 137 343 105z m3447 -13 c103 -42 185 -124 224 -225 13 -33 22 -87 26
-145 l5 -93 -94 0 c-157 0 -179 -26 -179 -208 0 -137 9 -161 85 -217 30 -22
55 -43 55 -46 0 -3 -44 -33 -98 -67 -120 -75 -135 -90 -135 -142 0 -53 8 -60
202 -200 l160 -115 1 -1057 0 -1058 -1337 -2 -1338 -3 -65 -31 c-144 -68 -220
-191 -220 -355 0 -226 138 -380 342 -383 50 -1 61 3 84 26 20 20 27 36 27 68
0 56 -31 86 -101 100 -76 14 -107 34 -131 83 -25 51 -28 141 -7 190 17 42 76
93 116 102 119 26 243 -69 301 -230 67 -185 8 -457 -126 -584 -94 -89 -178
-115 -297 -91 -137 27 -241 112 -308 252 -71 147 -72 161 -77 729 l-5 505 139
123 c159 142 181 173 163 227 -11 31 -31 49 -156 130 l-144 94 0 1053 c0 705
-4 1082 -11 1142 -20 162 -85 342 -154 424 l-27 31 1513 -2 1514 -3 53 -22z
m413 -3783 c188 -35 339 -192 371 -384 39 -233 -133 -472 -371 -516 -34 -6
-494 -10 -1244 -10 l-1189 0 26 35 c64 83 127 254 141 383 l7 62 794 0 794 0
32 29 c27 24 33 36 33 71 0 35 -6 47 -33 71 l-32 29 -803 0 -803 0 -18 58
c-10 31 -33 85 -52 120 l-35 62 1164 0 c733 0 1184 -4 1218 -10z"/>
<path d="M1850 4327 c-38 -18 -63 -77 -50 -113 16 -42 39 -63 75 -70 111 -21
159 133 58 185 -28 14 -52 14 -83 -2z"/>
<path d="M2284 4330 c-32 -13 -64 -59 -64 -91 0 -18 11 -41 29 -61 l29 -33
744 -3 c409 -1 754 0 766 3 13 3 35 18 48 32 43 46 27 121 -33 152 -26 13
-1486 15 -1519 1z"/>
<path d="M1850 3767 c-14 -7 -33 -29 -43 -50 -18 -36 -18 -38 0 -74 10 -21 29
-43 43 -50 34 -17 1920 -19 1953 -2 35 18 57 51 57 89 0 38 -22 71 -57 89 -33
17 -1919 15 -1953 -2z"/>
<path d="M1850 3207 c-14 -7 -33 -29 -43 -50 -18 -36 -18 -38 0 -74 10 -21 29
-43 43 -50 34 -17 1920 -19 1953 -2 35 18 57 51 57 89 0 38 -22 71 -57 89 -33
17 -1919 15 -1953 -2z"/>
<path d="M1850 2647 c-14 -7 -33 -29 -43 -50 -18 -36 -18 -38 0 -74 10 -21 29
-43 43 -50 34 -17 1920 -19 1953 -2 35 18 57 51 57 89 0 38 -22 71 -57 89 -33
17 -1919 15 -1953 -2z"/>
<path d="M1850 2087 c-14 -7 -33 -29 -43 -50 -18 -36 -18 -38 0 -74 10 -21 29
-43 43 -50 34 -17 1920 -19 1953 -2 35 18 57 51 57 89 0 38 -22 71 -57 89 -33
17 -1919 15 -1953 -2z"/>
<path d="M4181 867 c-95 -55 -40 -206 67 -182 73 16 103 109 51 160 -30 31
-85 41 -118 22z"/>
</g>
</svg>
