<?xml version="1.0" standalone="no"?>
<!DOCTYPE svg PUBLIC "-//W3C//DTD SVG 20010904//EN"
 "http://www.w3.org/TR/2001/REC-SVG-20010904/DTD/svg10.dtd">
<svg version="1.0" xmlns="http://www.w3.org/2000/svg"
 width="30px" height="30px" viewBox="0 0 512.000000 512.000000"
 preserveAspectRatio="xMidYMid meet">

<g transform="translate(0.000000,512.000000) scale(0.100000,-0.100000)"
fill="black" stroke="none">
<path d="M4995 5099 c-11 -6 -149 -140 -306 -296 l-287 -285 -63 30 c-80 39
-136 48 -434 67 -132 8 -449 29 -705 46 -514 34 -524 34 -640 -22 -60 -29
-157 -123 -1266 -1233 -1340 -1340 -1251 -1241 -1276 -1411 -14 -102 5 -203
58 -292 28 -46 221 -244 813 -835 710 -710 782 -778 841 -807 133 -63 276 -63
410 1 60 28 152 118 1266 1232 1110 1109 1204 1206 1233 1266 57 120 57 104 7
875 -25 385 -50 731 -56 769 -6 39 -25 99 -42 134 l-30 65 285 286 c157 157
290 296 296 308 17 34 13 52 -18 84 -31 31 -53 35 -86 18z m-1545 -614 c382
-25 718 -50 746 -55 104 -22 120 1 -265 -384 l-349 -349 -49 24 c-41 20 -63
24 -148 24 -88 0 -107 -3 -157 -27 -79 -37 -142 -98 -181 -177 -29 -60 -32
-73 -32 -161 1 -84 4 -102 30 -155 37 -76 104 -143 180 -180 53 -26 71 -29
155 -30 88 0 101 3 161 32 79 39 140 102 177 181 24 50 27 69 27 157 0 85 -4
107 -24 148 l-24 49 349 349 c385 385 362 369 384 265 15 -74 103 -1444 95
-1485 -4 -19 -17 -55 -30 -80 -17 -33 -363 -385 -1207 -1228 -651 -649 -1197
-1188 -1213 -1196 -80 -40 -204 -39 -281 2 -59 30 -1566 1544 -1595 1601 -17
33 -23 63 -23 115 -2 142 -97 37 1223 1358 737 739 1201 1196 1226 1209 46 24
81 36 110 37 11 1 333 -19 715 -44z m-6 -901 c13 -5 8 -16 -29 -55 -55 -59
-61 -105 -19 -138 43 -34 78 -27 133 24 55 52 61 48 61 -38 0 -180 -221 -273
-354 -149 -107 100 -75 289 59 348 31 14 122 19 149 8z"/>
<path d="M1989 3317 c-20 -8 -49 -23 -65 -35 -16 -11 -259 -252 -541 -534
-388 -389 -517 -524 -532 -558 -29 -65 -28 -160 3 -225 34 -71 1049 -1084
1116 -1114 65 -29 160 -28 225 3 40 19 159 134 571 547 287 288 530 540 540
559 26 49 26 191 0 240 -25 47 -1040 1065 -1095 1097 -52 32 -164 41 -222 20z
m658 -670 c520 -519 523 -522 523 -563 0 -30 -8 -52 -29 -80 -34 -46 -965
-974 -1001 -998 -13 -9 -45 -16 -70 -16 l-45 0 -517 518 -518 517 0 55 0 54
488 489 c268 269 505 502 526 518 28 21 50 29 80 29 41 0 44 -3 563 -523z"/>
<path d="M2455 2558 c-11 -6 -38 -28 -61 -50 l-41 -39 -52 17 c-130 42 -277
-19 -335 -139 -55 -112 -44 -207 36 -314 47 -64 50 -71 45 -116 -7 -78 -69
-126 -144 -112 -29 5 -58 27 -133 100 -52 51 -105 96 -117 99 -26 8 -78 -16
-87 -39 -16 -44 -6 -71 49 -125 l54 -54 -39 -43 c-48 -51 -53 -91 -15 -128 38
-39 77 -33 132 18 l45 43 57 -19 c168 -57 344 65 359 249 6 79 -15 144 -68
207 -22 27 -42 64 -46 83 -13 70 36 133 110 141 57 7 86 -10 191 -116 80 -81
103 -93 150 -75 23 9 47 61 39 87 -3 12 -29 46 -57 74 l-51 53 36 37 c66 70
72 100 29 144 -31 31 -53 35 -86 17z"/>
</g>
</svg>
