<?xml version="1.0" standalone="no"?>
<!DOCTYPE svg PUBLIC "-//W3C//DTD SVG 20010904//EN"
 "http://www.w3.org/TR/2001/REC-SVG-20010904/DTD/svg10.dtd">
<svg version="1.0" xmlns="http://www.w3.org/2000/svg"
 width="30px" height="30px" viewBox="0 0 512.000000 512.000000"
 preserveAspectRatio="xMidYMid meet">

<g transform="translate(0.000000,512.000000) scale(0.100000,-0.100000)"
fill="black" stroke="none">
<path d="M970 4666 c-123 -36 -843 -307 -867 -326 -38 -30 -81 -95 -94 -144
-14 -48 2 -211 27 -298 21 -70 74 -173 119 -232 81 -107 757 -887 782 -903 26
-17 89 -21 162 -11 22 3 27 -6 62 -101 22 -57 39 -109 39 -116 0 -6 -19 -18
-41 -25 -90 -30 -125 -101 -95 -195 9 -28 16 -55 16 -58 0 -4 -183 -7 -407 -7
-392 0 -409 -1 -441 -20 -53 -32 -62 -68 -62 -243 0 -140 2 -155 20 -175 28
-30 82 -30 110 0 18 20 20 35 20 155 l0 133 1390 0 1390 0 0 -130 c0 -107 -3
-130 -14 -130 -38 0 -193 -67 -264 -114 l-81 -53 -68 66 c-150 144 -311 176
-474 94 -221 -110 -400 -435 -416 -753 -9 -176 30 -296 137 -428 l51 -63 -498
3 c-444 3 -501 5 -528 20 -53 29 -549 468 -577 510 -41 61 -48 98 -48 264 0
137 -2 152 -20 172 -28 30 -82 30 -110 -1 -21 -21 -21 -30 -18 -202 4 -195 14
-238 76 -327 27 -39 517 -474 596 -529 84 -59 91 -59 872 -59 670 0 715 1 786
19 42 11 100 32 128 46 l53 27 56 -25 c127 -57 155 -59 819 -64 318 -2 506 0
531 7 50 13 87 43 110 88 13 26 63 319 162 940 l144 902 91 0 92 0 6 -92 c3
-51 8 -244 12 -428 3 -184 10 -351 15 -371 10 -42 44 -76 87 -88 17 -5 76 -7
132 -4 90 5 106 9 132 31 16 14 34 37 39 51 13 32 -7 922 -22 1006 -15 81 -47
141 -108 198 -82 77 -123 91 -278 95 l-132 4 5 57 c8 69 -11 112 -59 141 -31
19 -56 20 -784 20 -740 0 -753 0 -773 -20 -28 -28 -26 -75 5 -105 l24 -25 721
0 720 0 -5 -22 c-3 -13 -84 -518 -180 -1122 -111 -697 -180 -1103 -188 -1108
-6 -4 -164 -8 -350 -8 l-338 0 57 67 c93 109 157 273 171 440 8 93 -8 123 -67
123 -53 0 -75 -30 -83 -112 -21 -216 -122 -387 -271 -457 -72 -35 -172 -55
-230 -46 -68 10 -126 27 -126 37 0 6 12 24 26 41 37 44 80 134 99 208 13 50
16 92 12 189 -5 142 -32 250 -95 384 l-36 79 34 28 c50 42 159 97 230 115 140
36 236 -14 306 -159 18 -37 38 -74 44 -82 18 -22 76 -19 100 5 27 27 25 68 -5
137 -53 118 -146 209 -247 242 l-38 13 0 156 c0 138 -2 161 -20 189 -34 56
-60 63 -243 63 l-165 0 -11 63 c-6 34 -13 82 -17 107 -8 54 -34 107 -66 137
-12 12 -113 64 -223 116 l-200 94 -3 41 -3 42 185 0 c197 0 226 6 245 47 16
36 14 51 -14 78 l-24 25 -226 0 c-182 0 -232 -3 -255 -15 -47 -25 -60 -61 -60
-174 0 -96 1 -102 28 -131 18 -21 99 -65 242 -133 l215 -103 11 -54 c6 -30 13
-74 16 -98 l6 -42 -491 2 -491 3 -53 145 c-36 99 -62 154 -82 173 -36 36 -93
45 -156 24 -54 -19 -44 -30 -99 122 l-33 94 50 26 c86 44 90 54 99 264 5 100
7 398 5 662 l-3 480 -28 77 c-29 80 -117 232 -164 281 -57 60 -168 88 -252 63z
m109 -147 c34 -12 86 -80 135 -176 55 -109 56 -125 55 -663 -1 -272 -4 -508
-8 -524 -4 -21 -30 86 -89 370 -120 575 -150 680 -249 878 -19 37 -33 70 -31
72 7 6 132 53 144 54 6 0 25 -5 43 -11z m-286 -191 c54 -114 90 -209 116 -308
27 -98 232 -1071 229 -1081 -5 -12 -533 988 -562 1064 -34 88 -86 273 -86 306
0 24 9 29 113 67 61 23 120 42 129 43 13 1 30 -25 61 -91z m-393 -268 c46
-147 92 -243 344 -714 102 -192 185 -350 184 -351 -6 -6 -655 759 -685 807
-40 62 -69 149 -84 246 -19 130 -1 163 111 206 l65 24 13 -46 c7 -26 31 -103
52 -172z m4429 -1450 c53 -26 98 -83 110 -139 5 -25 12 -174 16 -331 3 -157 8
-353 11 -436 l7 -152 -49 -4 c-27 -3 -52 -2 -55 1 -4 3 -11 199 -17 434 -12
488 -11 483 -92 525 -37 18 -60 22 -138 22 l-94 0 6 31 c3 17 6 40 6 50 0 18
9 19 125 19 105 0 132 -3 164 -20z m-3341 -249 c18 -48 32 -94 32 -100 0 -8
-38 -11 -137 -9 l-138 3 -19 53 c-10 29 -16 55 -13 58 9 9 210 83 227 83 11 1
26 -27 48 -88z m951 -646 c238 -83 437 -542 353 -812 -50 -158 -186 -275 -354
-304 -189 -31 -385 76 -470 257 -65 140 -44 354 56 559 76 159 179 269 278
300 57 18 87 18 137 0z"/>
<path d="M3825 2521 c-49 -21 -64 -83 -30 -121 26 -29 156 -29 185 0 27 27 26
81 0 105 -23 21 -121 31 -155 16z"/>
<path d="M3813 2148 c-28 -14 -45 -61 -33 -93 13 -34 40 -45 114 -45 79 0 106
19 106 74 0 51 -37 76 -109 75 -31 0 -66 -5 -78 -11z"/>
<path d="M3812 1783 c-7 -3 -19 -18 -28 -35 -13 -25 -13 -35 -3 -59 16 -40 37
-49 107 -49 75 0 112 25 112 74 0 54 -33 76 -111 75 -35 0 -70 -3 -77 -6z"/>
<path d="M3799 1402 c-33 -27 -30 -78 5 -109 37 -32 131 -33 170 -2 33 26 36
79 6 109 -28 28 -147 29 -181 2z"/>
</g>
</svg>
