<svg version="1.0" xmlns="http://www.w3.org/2000/svg" width="30pt" height="30pt" viewBox="0 0 512.000000 512.000000" preserveAspectRatio="xMidYMid meet">
    <g transform="translate(0.000000,512.000000) scale(0.100000,-0.100000)" fill="#000000" stroke="none">
        <path d="M700 5013 c-28 -10 -66 -37 -102 -73 -85 -85 -88 -102 -88 -451 l0 -287 -137 -4 c-158 -4 -201 -19 -274 -92 -64 -62 -93 -135 -94 -226 0 -66 5 -85 33 -143 21 -42 48 -79 75 -100 81 -66 99 -71 255 -75 l142 -4 0 -339 0 -339 -125 0 c-154 0 -215 -19 -285 -89 -71 -71 -95 -129 -95 -231 0 -102 24 -160 95 -231 70 -70 131 -89 285 -89 l125 0 0 -340 0 -340 -125 0 c-100 0 -135 -4 -178 -20 -76 -29 -130 -79 -169 -157 -80 -162 -17 -345 147 -431 45 -24 62 -27 188 -30 l137 -4 0 -287 c0 -349 3 -366 88 -451 100 -99 -93 -91 1947 -88 l1790 3 57 23 c140 56 248 215 248 364 l0 48 177 0 c206 0 243 10 281 79 22 38 22 44 22 496 0 452 0 458 -22 496 -38 69 -75 79 -281 79 l-177 0 0 155 0 155 189 0 c179 0 190 1 222 23 70 46 69 40 69 547 0 507 1 501 -69 547 -32 22 -43 23 -222 23 l-189 0 0 154 0 154 188 4 c211 3 232 10 271 78 20 37 21 49 21 495 0 452 0 458 -22 496 -38 69 -75 79 -281 79 l-177 0 0 48 c0 149 -108 308 -248 364 l-57 23 -1795 2 c-1619 1 -1799 0 -1840 -14z m3648 -169 c57 -28 107 -87 122 -145 7 -24 9 -787 8 -2160 -3 -1987 -4 -2126 -20 -2155 -25 -46 -77 -94 -123 -115 -38 -18 -117 -19 -1805 -19 -1753 0 -1765 0 -1798 20 -58 36 -62 58 -62 370 l0 280 100 0 c128 0 194 23 263 92 61 61 89 123 95 213 8 131 -63 250 -183 306 -54 26 -70 29 -167 29 l-108 0 0 339 0 339 118 4 c102 3 123 7 167 30 60 31 114 86 146 148 20 38 24 60 24 140 0 84 -3 101 -27 145 -32 60 -87 115 -148 146 -38 19 -64 24 -162 27 l-118 4 0 339 0 339 108 0 c97 0 113 3 167 29 75 35 136 102 166 180 44 118 7 267 -88 350 -67 60 -133 81 -253 81 l-100 0 0 280 c0 312 4 334 62 370 33 20 45 20 1799 20 l1765 0 52 -26z m612 -829 l0 -415 -160 0 -160 0 0 415 0 415 160 0 160 0 0 -415z m-4069 2 c80 -54 102 -142 54 -222 -42 -73 -53 -75 -380 -75 -313 0 -319 1 -368 60 -47 56 -45 141 5 205 40 51 59 54 369 55 281 0 287 0 320 -23z m4069 -1457 l0 -410 -160 0 -160 0 0 410 0 410 160 0 160 0 0 -410z m-4074 144 c56 -27 79 -68 79 -144 0 -51 -5 -72 -22 -96 -44 -61 -60 -64 -381 -64 -283 0 -290 0 -322 23 -57 38 -75 71 -75 137 0 66 18 99 75 138 32 22 39 22 322 22 247 0 295 -2 324 -16z m4074 -1599 l0 -415 -160 0 -160 0 0 415 0 415 160 0 160 0 0 -415z m-4058 270 c67 -50 88 -152 45 -216 -12 -18 -38 -44 -57 -57 -34 -23 -35 -23 -331 -20 -338 3 -332 2 -377 89 -41 77 -19 154 59 207 33 23 35 23 334 20 282 -3 302 -4 327 -23z"/>
        <path d="M2370 4275 c-225 -50 -403 -146 -556 -301 -152 -154 -248 -339 -290 -563 -24 -124 -15 -345 19 -461 108 -382 381 -652 767 -761 76 -21 105 -24 265 -24 154 1 192 4 262 23 384 104 676 395 773 769 42 163 42 373 1 536 -95 368 -394 668 -768 769 -103 27 -375 35 -473 13z m387 -160 c135 -28 222 -66 340 -148 217 -148 359 -395 382 -662 30 -333 -122 -648 -400 -835 -156 -104 -312 -150 -508 -150 -304 0 -581 147 -747 396 -167 251 -201 563 -93 845 104 270 363 490 652 553 85 19 289 20 374 1z"/>
        <path d="M2195 3863 c-73 -11 -110 -27 -152 -66 -209 -192 -110 -630 211 -934 195 -186 453 -296 651 -279 107 9 161 31 226 95 65 63 80 103 83 211 2 96 -16 116 -177 197 -179 90 -228 88 -304 -9 l-30 -37 -54 31 c-69 40 -187 158 -227 227 l-31 54 37 30 c52 40 75 82 75 131 0 57 -119 295 -163 326 -32 23 -89 32 -145 23z m99 -248 c29 -56 46 -99 40 -104 -5 -4 -28 -22 -51 -40 -60 -46 -71 -88 -43 -162 42 -113 141 -240 253 -325 67 -51 193 -114 227 -114 43 0 89 37 141 113 3 4 49 -13 102 -39 104 -52 98 -43 82 -119 -3 -15 -22 -36 -47 -52 -38 -26 -50 -28 -132 -28 -176 1 -351 85 -518 251 -127 126 -213 273 -242 417 -19 90 -19 110 -6 174 14 66 46 104 96 113 21 4 41 8 44 9 3 0 27 -42 54 -94z"/>
        <path d="M1567 1830 c-44 -35 -43 -93 2 -127 12 -10 243 -12 1003 -13 542 0 994 3 1003 6 18 7 45 55 45 79 0 9 -13 30 -29 46 l-29 29 -985 0 c-967 0 -985 0 -1010 -20z"/>
        <path d="M1564 1327 c-35 -31 -37 -77 -4 -112 l23 -25 991 0 c1049 1 1009 -1 1034 47 18 34 14 52 -17 84 l-29 29 -986 0 -985 0 -27 -23z"/>
        <path d="M1560 825 c-33 -35 -31 -81 4 -112 l27 -23 985 0 986 0 29 29 c31 32 35 50 17 84 -25 48 15 46 -1034 47 l-991 0 -23 -25z"/>
    </g>
</svg>
